<?xml version="1.0" standalone="no"?><!DOCTYPE svg PUBLIC "-//W3C//DTD SVG 1.1//EN" "http://www.w3.org/Graphics/SVG/1.1/DTD/svg11.dtd"><svg class="icon" height="512" viewBox="0 0 2048 1024" version="1.1" xmlns="http://www.w3.org/2000/svg"><path d="M123.771733 21.333333 1916.189867 21.333333C1946.5728 21.333333 1971.2 45.960533 1971.2 76.343467L1971.2 951.9232C1971.2 982.306133 1946.5728 1006.933333 1916.189867 1006.933333L123.771733 1006.933333C93.393067 1006.933333 68.7616 982.306133 68.7616 951.9232L68.7616 76.343467C68.7616 45.960533 93.393067 21.333333 123.771733 21.333333zM343.172267 660.8256 343.172267 504.388267C344.209067 466.5728 365.448533 444.817067 389.794133 444.817067 428.130133 444.817067 435.899733 476.416 436.416 504.388267L436.416 660.8256 514.120533 660.8256 514.120533 491.438933C514.120533 482.632533 513.083733 466.056533 508.936533 449.9968 499.613867 412.181333 449.365333 393.015467 423.466667 393.015467 384.098133 393.015467 359.752533 408.554667 343.6928 432.384L342.656 431.3472 342.656 286.8224 265.472 286.8224 265.472 660.8256zM548.309333 400.785067 548.309333 452.586667 600.6272 452.586667 600.6272 580.535467C600.6272 637.000533 613.576533 668.599467 674.184533 668.599467 685.064533 668.599467 726.5024 664.9728 735.3088 660.8256L735.3088 615.240533C727.022933 615.761067 718.7328 616.797867 710.446933 616.797867 683.5072 616.797867 678.327467 607.470933 678.327467 573.282133L678.327467 452.586667 736.866133 452.586667 736.866133 400.785067 678.327467 400.785067 678.327467 321.527467 600.6272 349.499733 600.6272 400.785067zM749.815467 400.785067 749.815467 452.586667 802.133333 452.586667 802.133333 580.535467C802.133333 637.000533 815.082667 668.599467 875.690667 668.599467 886.570667 668.599467 928.0128 664.9728 936.8192 660.8256L936.8192 615.240533C928.529067 615.761067 920.238933 616.797867 911.953067 616.797867 885.0176 616.797867 879.837867 607.470933 879.837867 573.282133L879.837867 452.586667 938.372267 452.586667 938.372267 400.785067 879.837867 400.785067 879.837867 321.527467 802.133333 349.499733 802.133333 400.785067zM1052.8512 400.785067 974.114133 400.785067C975.150933 417.877333 976.704 435.490133 976.704 452.586667L976.704 760.285867 1054.404267 760.285867 1054.404267 624.046933 1055.441067 624.046933C1072.017067 654.609067 1101.026133 668.599467 1134.698667 668.599467 1210.845867 668.599467 1246.587733 597.627733 1246.587733 530.807467 1246.587733 460.872533 1205.666133 393.015467 1124.855467 393.015467 1097.92 393.015467 1069.947733 409.070933 1055.441067 430.830933L1054.404267 430.830933zM1054.404267 530.807467C1054.404267 495.061333 1068.394667 444.817067 1110.353067 444.817067 1160.081067 444.817067 1166.2976 490.9184 1166.2976 530.807467 1166.2976 570.692267 1160.081067 616.797867 1110.353067 616.797867 1068.394667 616.797867 1054.404267 566.549333 1054.404267 530.807467zM1372.4672 660.8256 1372.4672 591.931733 1306.679467 591.931733 1306.679467 660.8256zM1372.4672 469.162667 1372.4672 400.2688 1306.679467 400.2688 1306.679467 469.162667zM1619.5584 286.8224 1559.470933 286.8224 1433.0752 710.557867 1493.6832 710.557867zM1805.038933 286.8224 1744.951467 286.8224 1618.555733 710.557867 1679.163733 710.557867z" /></svg>