<?xml version="1.0" encoding="utf-8"?>
<!-- Generator: Adobe Illustrator 22.1.0, SVG Export Plug-In . SVG Version: 6.00 Build 0)  -->
<svg version="1.1" id="svg" xmlns="http://www.w3.org/2000/svg" xmlns:xlink="http://www.w3.org/1999/xlink" x="0px" y="0px"
	 viewBox="0 0 460 460" style="enable-background:new 0 0 460 460;" xml:space="preserve">
<style type="text/css">
	.st0{fill:none;}
	.st1{fill:#3A3A3A;}
	.st2{fill:#7BA5D8;}
	.st3{fill:#DFEAF7;}
</style>
<g id="svgg">
	<path id="path0" class="st0" d="M30,30"/>
	<path id="path1" class="st1" d="M229.3,84.8c-0.5,0.2-1.6,0.9-2.6,1.5c-2.6,1.7-3.2,2.1-4.2,2.5c-0.5,0.2-2.8,1.5-5.2,3
		c-2.4,1.4-4.6,2.7-5,2.8c-0.3,0.1-1.1,0.6-1.8,1.1c-0.7,0.4-1.6,1-2.2,1.2c-0.5,0.2-1.8,1-2.7,1.6c-1,0.7-1.9,1.2-2,1.2
		c-0.1,0-1.7,0.9-3.5,2s-3.4,2-3.5,2c-0.1,0-1,0.5-1.9,1.2c-2,1.3-5.7,3.4-7.1,4.1c-0.5,0.2-1.8,1-2.7,1.6c-1,0.7-1.8,1.2-1.9,1.2
		c-0.2,0-8.8,4.9-9.8,5.6c-0.3,0.2-1.1,0.7-1.8,1c-0.7,0.3-1.7,1-2.4,1.4s-1.6,1-2,1.2c-0.4,0.2-1.5,0.8-2.3,1.3
		c-0.8,0.5-2.4,1.4-3.6,2c-1.2,0.6-2.9,1.7-3.9,2.3c-0.9,0.6-1.9,1.2-2.1,1.2c-0.2,0-1.1,0.5-2.1,1.2c-0.9,0.6-2.6,1.6-3.7,2.2
		c-1.1,0.6-2.5,1.4-3.2,1.8c-0.7,0.4-1.7,1-2.4,1.4c-0.7,0.3-2.3,1.2-3.6,2c-1.3,0.8-2.9,1.6-3.5,1.9c-0.6,0.3-1.1,0.6-1.1,0.8
		c0,0.2-0.9,0.8-2.1,1.3c-2.7,1.4-4.1,2.2-6.2,3.5c-0.9,0.6-1.8,1.1-2,1.1c-0.2,0-1.2,0.6-2.3,1.3c-3.2,2-3.4,2.2-6.4,3.7l-2.8,1.5
		l-1.8-0.9c-1-0.5-2.9-1.5-4.2-2.2c-1.3-0.7-2.7-1.5-3-1.6c-0.3-0.1-0.9-0.5-1.2-0.8s-1.5-1-2.6-1.5c-4.6-2.4-6.4-4-6.3-5.5
		c0.5-6.3,0.5-10.2,0-11.7c-0.3-0.9-0.7-2.2-0.9-2.9c-0.1-0.7-0.4-1.4-0.6-1.5c-0.2-0.1-0.7-1-1.2-2c-1.6-3.2-8.1-9-10-9
		c-0.3,0-0.8-0.2-1.1-0.5c-0.6-0.6-4.5-1.5-7.8-1.8c-2.5-0.2-7.6,0.7-9.5,1.7c-0.6,0.3-1.3,0.6-1.5,0.6c-1.4,0-8.8,6.3-8.8,7.5
		c0,0.2-0.3,0.6-0.6,0.8c-5,4.1-4.7,18.2,0.5,25.8c1.9,2.8,6,6.6,7.1,6.6c0.2,0,0.6,0.3,0.9,0.6s1,0.7,1.7,0.8
		c0.7,0.1,1.5,0.4,1.7,0.6c1.6,1.3,11.8,1.4,14.3,0.1c0.6-0.3,1.5-0.6,1.8-0.6c0.4,0,1.1-0.3,1.6-0.7c0.5-0.4,1.6-1.1,2.5-1.5
		l1.5-0.8l1.8,1c1,0.5,1.8,1.1,1.8,1.3c0,0.2,0.2,0.3,0.4,0.3c0.2,0,1.7,0.8,3.2,1.7c1.5,0.9,3.3,2,3.9,2.3c0.6,0.3,2.4,1.3,3.9,2.2
		c1.5,0.9,3.5,2,4.4,2.4l1.6,0.9l0.1,67.2l0.1,67.2l1.1,0.5c1.8,0.8,5.5,3,5.6,3.4c0.1,0.2,0.3,0.3,0.5,0.3s2.1,1,4.1,2.2
		c2.1,1.2,3.9,2.2,4.2,2.2s0.4,0.2,0.4,0.4c0,0.2,0.5,0.6,1.1,0.8c0.6,0.2,1.6,0.8,2.3,1.2s1.6,1,2.2,1.3c0.6,0.3,1.1,0.6,1.2,0.7
		c0.1,0.1,0.7,0.4,1.2,0.7c0.5,0.3,1.3,0.7,1.6,0.9c2.4,1.5,7.6,4.4,7.8,4.4c0.2,0,0.6,0.3,0.9,0.6c0.7,0.6,4.5,2.8,6,3.5
		c0.5,0.2,1.1,0.6,1.2,0.7c0.1,0.2,0.7,0.5,1.2,0.8c0.6,0.3,1.5,0.9,2.2,1.3s1.7,1,2.3,1.2c0.6,0.2,1.1,0.6,1.1,0.8
		c0,0.2,0.2,0.4,0.4,0.4c0.2,0,2.5,1.2,5.1,2.7s4.9,2.9,5.3,3c0.3,0.1,1.1,0.6,1.8,1.1c0.7,0.4,1.5,0.9,1.8,1.1
		c1.3,0.6,6.2,3.5,6.3,3.8c0.1,0.2,0.3,0.3,0.5,0.3c0.2,0,2.5,1.2,5.1,2.7c2.6,1.5,4.9,2.9,5.3,3c0.3,0.1,1.1,0.6,1.8,1.1
		c0.7,0.4,1.7,1.1,2.4,1.4c0.7,0.3,1.7,1,2.4,1.4c0.7,0.4,1.9,1.1,2.8,1.6s2.6,1.5,3.7,2.2c1.2,0.8,2.2,1.4,2.3,1.4
		c0.2,0,6.6,3.7,7.7,4.4c0.3,0.2,1.1,0.7,1.8,1c0.7,0.3,1.7,1,2.4,1.4s1.6,1,2.2,1.2c0.5,0.2,1.1,0.6,1.2,0.7
		c0.1,0.2,0.7,0.5,1.2,0.8c1.7,0.8,5.4,3,5.6,3.2c0.1,0.1,1.4,0.9,2.8,1.6l2.6,1.4l4.8-2.8c6.1-3.6,7.8-4.5,8.8-5
		c0.4-0.2,1.3-0.8,2-1.2s1.7-1.1,2.4-1.4c0.7-0.3,1.6-0.8,2-1.1c2-1.3,4.2-2.6,6-3.5c1.1-0.6,2.9-1.6,4-2.3s2.2-1.3,2.5-1.3
		c0.3,0,0.5-0.2,0.5-0.4c0-0.2,0.4-0.5,0.9-0.6c0.5-0.2,1.2-0.5,1.5-0.8c0.3-0.3,1.5-1,2.6-1.6c1.1-0.6,3.1-1.7,4.4-2.4
		s2.9-1.6,3.4-1.9c0.6-0.3,1.1-0.6,1.2-0.7c0.2-0.3,4-2.4,5.6-3.3c0.5-0.3,1.1-0.6,1.2-0.8c0.1-0.2,0.7-0.5,1.2-0.7
		c0.5-0.2,1.5-0.8,2.2-1.2c0.7-0.4,1.7-1.1,2.4-1.4c0.7-0.3,1.5-0.8,1.8-1c1.2-0.8,11.8-6.9,12.6-7.3c0.4-0.2,1.3-0.7,2-1.1
		c0.7-0.4,1.6-1,2-1.2c0.4-0.2,1.5-0.9,2.4-1.4c0.9-0.5,1.9-1.1,2.2-1.3c0.3-0.2,3.2-1.8,6.3-3.6c3.1-1.8,5.9-3.3,6.1-3.3
		c0.2,0,0.4-0.1,0.5-0.3c0.1-0.3,5-3.2,6.3-3.8c0.3-0.1,1.1-0.6,1.8-1.1c0.7-0.4,1.6-1,2.2-1.2c0.5-0.2,1.8-1,2.7-1.6
		c1-0.7,1.8-1.2,1.9-1.2c0.1,0,1.2-0.6,2.5-1.4c3.1-1.8,4.6-1.8,7.6,0c1.3,0.7,2.7,1.5,3.2,1.6c0.5,0.1,0.9,0.4,0.9,0.6
		c0,0.2,0.2,0.4,0.5,0.4c0.3,0,1.4,0.6,2.6,1.4c1.1,0.8,2.4,1.5,2.9,1.6c0.4,0.1,0.8,0.4,0.8,0.6c0,0.2,0.2,0.4,0.5,0.4
		c0.3,0,1.2,0.5,2.1,1.1l1.6,1.1v7.2c0,6.2,0.1,7.3,0.7,8.2c0.4,0.5,0.7,1.2,0.7,1.5c0,2.7,8.5,11.7,11,11.7c0.3,0,0.8,0.3,1.1,0.6
		c0.5,0.5,1.7,0.8,6.9,1.9c8.1,1.6,20.8-5.6,23.2-13.1c0.1-0.4,0.5-1.3,0.8-1.9c2.6-5.9,0.8-19.2-2.9-21.5c-0.3-0.2-0.5-0.5-0.5-0.7
		c0-0.6-4.4-4.6-6.1-5.5c-0.9-0.5-1.9-1.1-2.1-1.3c-0.2-0.2-0.7-0.4-1-0.4c-0.3,0-1.2-0.3-1.8-0.7c-1.8-1-11.6-1.3-13.4-0.4
		c-0.7,0.4-1.4,0.6-1.6,0.6c-0.6,0-4.7,2-4.9,2.4c-0.4,0.6-2.8,0.4-3.4-0.2c-0.3-0.3-0.6-0.6-0.8-0.6s-1.1-0.5-2.1-1.1
		c-0.9-0.6-2.5-1.6-3.5-2.1c-1-0.5-2.5-1.4-3.4-2c-1.7-1.1-2.3-1.4-6.3-3.5c-1.7-0.9-2.7-1.6-2.8-2.2c-0.1-0.5-0.2-30.8-0.2-67.4
		c0-63.1,0-66.5-0.7-66.7c-0.4-0.1-1.7-0.9-2.8-1.6c-1.2-0.8-2.3-1.4-2.5-1.4s-1.3-0.6-2.5-1.4c-1.2-0.8-2.3-1.4-2.6-1.4
		c-0.3,0-0.6-0.3-0.7-0.6c-0.1-0.3-0.6-0.6-1-0.6s-0.9-0.2-1-0.4s-0.8-0.7-1.5-1c-0.7-0.3-1.6-0.8-2.1-1.1c-1.9-1.2-4.1-2.5-5-3
		c-0.6-0.3-1.3-0.7-1.6-0.9c-0.3-0.2-2.7-1.6-5.2-3c-2.5-1.4-4.9-2.8-5.2-3c-0.3-0.2-1.1-0.6-1.6-0.9c-0.6-0.3-1.1-0.6-1.2-0.8
		c-0.1-0.2-0.7-0.5-1.2-0.7c-0.5-0.2-1.5-0.8-2.2-1.2c-0.7-0.4-1.6-1-2.2-1.2c-0.5-0.2-1.1-0.6-1.2-0.7c-0.1-0.2-0.7-0.5-1.2-0.8
		c-0.5-0.3-1.3-0.7-1.6-0.9c-1.3-0.8-7.4-4.3-8-4.6c-0.3-0.1-1.1-0.6-1.8-1c-0.7-0.4-2.1-1.3-3.2-1.8c-1.1-0.6-2.3-1.3-2.6-1.5
		c-0.3-0.3-1.1-0.7-1.6-1c-0.6-0.3-1.6-0.9-2.4-1.3c-4.9-2.9-8.8-5.2-9-5.2c-0.2,0-0.6-0.3-0.9-0.6c-0.6-0.5-3.6-2.3-5.8-3.4
		c-0.4-0.2-1.5-0.8-2.4-1.4c-0.9-0.5-2.5-1.4-3.7-2c-1.2-0.6-2.1-1.2-2.1-1.4c0-0.2-0.2-0.4-0.4-0.4s-2.3-1.1-4.5-2.4
		c-2.2-1.3-4.3-2.6-4.7-2.8c-0.3-0.2-0.9-0.5-1.2-0.6c-0.3-0.1-1.1-0.6-1.8-1c-0.7-0.4-1.7-1-2.3-1.2s-1.1-0.6-1.1-0.8
		c0-0.2-0.5-0.5-1.1-0.8c-1.3-0.5-4.5-2.3-7-3.9c-0.9-0.6-2.4-1.5-3.3-1.9c-0.9-0.4-2.1-1.1-2.6-1.5
		C231.9,84.6,230.4,84.4,229.3,84.8 M223.5,144.2c0.1,24.7,0,34.1-0.3,34.5c-0.7,0.8-13.2,0.2-22.2-1.1c-1.5-0.2-4.4-0.6-6.4-0.8
		c-4.4-0.5-7-1.1-7.3-1.9c-0.3-0.8,2-8.3,3.7-12c0.3-0.7,0.6-1.5,0.6-1.7c0-0.2,0.2-0.8,0.4-1.1c0.2-0.4,0.8-1.6,1.2-2.7
		c1.4-3.3,4.7-10.2,5.6-11.8c0.2-0.3,0.8-1.5,1.3-2.6c0.5-1.1,1.4-2.6,1.8-3.4c0.5-0.8,1.2-2.1,1.7-3c0.5-0.9,1.2-2,1.5-2.6
		c0.4-0.6,2.1-3.1,3.7-5.6c4.2-6.4,4.9-7.4,8.1-11.4c4.1-5.3,5.6-7,6-6.8C223.3,110.2,223.4,122,223.5,144.2 M241.3,113.5
		c1.4,1.7,2.8,3.3,3.1,3.7s0.8,1,1.2,1.6c0.4,0.6,1.5,2.1,2.6,3.5c1,1.3,1.9,2.6,1.9,2.7c0,0.1,0.9,1.5,1.9,3c1,1.5,2.1,3.1,2.4,3.5
		c0.5,0.9,2.7,4.3,3.9,6.3c1.4,2.2,7.5,14.4,8.5,16.9c0.5,1.3,1.1,2.8,1.3,3.2c1.4,3.2,2,4.6,2,5.1c0,0.3,0.2,0.9,0.5,1.3
		s0.7,1.4,0.8,2.2c0.2,0.8,0.4,1.6,0.6,1.8c0.6,0.8,2.1,6.2,1.9,6.7c-0.2,0.6-3.4,1.4-8,1.9c-1.8,0.2-4.3,0.5-5.5,0.7
		c-3.2,0.6-14.8,1.5-18.8,1.5l-3.4,0l-0.1-33.8c-0.1-31.4-0.1-34.8,0.5-34.8C238.7,110.4,239.9,111.8,241.3,113.5 M196.6,120.9
		c-0.1,0.5-0.7,1.4-1.1,2.1c-0.5,0.7-2.4,3.8-4.3,7c-3.9,6.6-8.2,15.1-11.2,22.2c-0.6,1.3-1.8,4.6-2.8,7.2c-0.5,1.3-1,2.7-1.2,3
		c-0.2,0.3-0.4,1.2-0.6,1.9c-0.2,0.7-0.5,1.8-0.8,2.4c-0.3,0.6-0.6,1.4-0.6,1.9c-0.1,1.8-1.3,3.6-2.6,3.5c-1.5-0.1-8.1-1.7-11.9-2.9
		c-0.7-0.2-2.5-0.8-4.1-1.3c-5.1-1.6-11.1-3.6-14-4.8c-1.6-0.6-3.1-1.1-3.4-1.1c-0.3,0-1-0.2-1.6-0.5c-1.1-0.6-3.1-1.5-5-2.2
		c-1.8-0.7-0.6-2,4.1-4.5c1-0.5,2.1-1.2,2.4-1.4c0.3-0.2,1.4-0.9,2.4-1.4c1-0.5,2.4-1.4,3.2-1.8c0.8-0.5,2.1-1.2,3-1.6
		c0.9-0.4,2.6-1.4,3.7-2.2c1.2-0.8,2.2-1.4,2.3-1.4c0.2,0,11.3-6.4,12.5-7.2c0.3-0.2,1-0.6,1.5-0.8c0.5-0.2,1.7-0.9,2.6-1.5
		c2.5-1.6,3.2-2,4.1-2.5c0.4-0.2,2.6-1.4,4.8-2.7c2.2-1.3,4.3-2.5,4.6-2.7c0.3-0.2,1.3-0.7,2.1-1.2c2-1.2,5.3-3.1,8.1-4.7
		c1.3-0.7,2.6-1.5,2.8-1.7C196.4,119.4,196.9,120,196.6,120.9 M266.2,120.4c0.9,0.5,2.2,1.2,2.8,1.6c0.7,0.4,1.6,1,2.2,1.3
		c0.5,0.3,1.7,0.9,2.6,1.5c0.9,0.5,2.1,1.3,2.8,1.6c3.4,1.8,5,2.7,6.6,3.8c1,0.6,2.6,1.6,3.6,2.1c1,0.5,2.3,1.3,3,1.7
		c0.7,0.4,2.1,1.2,3.2,1.8c1.1,0.6,2.3,1.3,2.6,1.6c0.3,0.3,0.8,0.6,0.9,0.6c0.2,0,12.5,7,14.7,8.4c0.3,0.2,1.5,0.8,2.6,1.4
		c1.1,0.6,2.3,1.3,2.6,1.6c0.3,0.3,0.7,0.6,0.9,0.6c0.1,0,2.9,1.5,6.1,3.4c3.2,1.9,6,3.4,6.2,3.4c0.2,0,0.5,0.4,0.6,0.9
		c0.3,0.9-0.6,1.9-1.7,1.9c-0.3,0-0.8,0.2-1.2,0.4c-1,0.5-4.1,1.8-5.7,2.4c-2,0.7-7.2,2.6-8.4,3.1c-1.1,0.4-4.8,1.6-8.6,2.7
		c-1.3,0.4-2.9,0.9-3.4,1.1c-0.6,0.2-1.6,0.5-2.4,0.7c-0.8,0.2-3.2,0.8-5.3,1.4c-4.7,1.3-5.3,1.1-5.9-1.1c-0.2-0.9-0.7-2.3-1-3
		c-0.3-0.7-0.6-1.5-0.6-1.8c0-0.6-2.7-8.3-3.4-9.6c-0.3-0.6-0.6-1.3-0.6-1.5c0-0.7-8.4-18.2-10-20.8c-0.2-0.3-1.4-2.4-2.7-4.6
		s-3.1-5.1-4-6.5C263,119.1,263.1,118.9,266.2,120.4 M76.3,124.1c4.1,2.1,6.5,7.5,4.9,10.9c-0.4,0.9-0.8,1.8-0.8,2
		c0,0.2-0.7,1.1-1.5,1.9c-8.7,8.7-22-3.5-13.8-12.7C67.8,123.1,72.5,122.2,76.3,124.1 M123.3,171c0.9,0.4,2.3,0.9,3.1,1.3
		c2.7,1.2,7,2.9,11,4.4c5.1,1.9,5.8,2.1,9.2,3.2c1.8,0.6,3.8,1.3,4.6,1.5c1.9,0.7,11.7,3.4,12.4,3.4c4.4,0.1,5.7,2,4.6,7.1
		c-0.3,1.7-0.8,4.8-1,6.8c-0.2,2.1-0.5,3.9-0.6,4.1c-0.1,0.2-0.4,3.5-0.6,7.4c-0.3,5-0.6,7.4-1,8l-0.6,0.9l-21.1,0
		c-12.6,0-21.3-0.2-21.7-0.4c-0.9-0.6-1.1-48.4-0.2-48.4C121.5,170.4,122.4,170.7,123.3,171 M339.9,194.1c0.1,15.8,0,23.8-0.3,24.3
		c-0.5,1-42,1.2-43.3,0.3c-0.5-0.4-0.7-1.7-0.9-5.9c-0.1-2.9-0.5-7.3-0.9-9.6c-1.5-9.9-2.4-15.3-2.8-16.1c-0.2-0.5,0-0.7,0.8-0.9
		c0.6-0.1,1.9-0.5,2.9-0.8c1-0.3,3-0.8,4.4-1.2c1.4-0.4,3.6-1,4.9-1.4c1.3-0.4,2.6-0.8,2.9-0.8s1.2-0.2,1.9-0.6
		c0.7-0.3,3.7-1.3,6.6-2.3c2.9-0.9,5.4-1.9,5.5-2c0.1-0.2,0.5-0.3,0.8-0.3c0.6,0,6.6-2.2,9.2-3.4c4.9-2.2,6.9-3,7.4-2.9
		C339.7,170.6,339.8,173.6,339.9,194.1 M278.7,193.4c0.9,4.3,1.5,8.2,2.1,13.4c0.2,2.1,0.6,5.3,0.8,7c0.7,5.8,1.8,5.3-14.2,5.3
		c-15,0-13.6,0.3-15.6-3.7c-2.4-5-6.7-9.2-11.6-11.3l-2-0.9v-5.1V193l6.8-0.2c7.3-0.3,13.8-0.8,20.6-1.8c2.3-0.3,5.5-0.8,7-0.9
		c1.5-0.2,3.3-0.5,3.8-0.7C277.7,188.8,277.8,188.9,278.7,193.4 M188.8,190c1.9,0.2,4.3,0.6,5.4,0.8c1.1,0.2,4.1,0.6,6.6,0.8
		c2.5,0.2,6.1,0.6,8,0.8c1.9,0.2,5.8,0.4,8.7,0.4c6.5,0,6.2-0.2,6.1,5.7l-0.1,4.5l-3.2,1.6c-4.5,2.3-8.4,6.2-10.6,10.8
		c-2.1,4.2-0.5,3.9-16.6,3.8l-13.2-0.1l-0.1-3.4c-0.1-1.9,0.1-5.6,0.5-8.2c0.3-2.6,0.7-5.4,0.8-6.2c1.2-9.1,2.2-12.4,3.8-11.8
		C185.1,189.5,186.9,189.8,188.8,190 M234.8,217.1c3.4,1.6,6,6.2,5.5,9.6c-1.3,8-10.6,11.2-16.2,5.6
		C216.6,224.9,225.2,212.7,234.8,217.1 M164.8,233.4c0.3,0.4,0.7,2.4,0.9,4.9c0.8,10.4,1.6,17.1,2.9,23.9c0.7,3.9,0.5,4.1-4.9,5.2
		c-0.8,0.2-2.3,0.5-3.4,0.9c-1.1,0.3-3,0.9-4.2,1.2s-2.9,0.9-3.8,1.1c-0.9,0.3-2.9,0.9-4.6,1.4c-1.7,0.5-3.5,1.1-4.2,1.4
		c-0.7,0.3-3.1,1.2-5.4,2s-4.7,1.7-5.4,2c-0.7,0.3-2.8,1.2-4.8,2c-2,0.8-4,1.6-4.4,1.8c-2.6,1.2-2.4,3.3-2.4-23.5
		c0-21,0.1-24.2,0.6-24.5C122.8,232.5,164.2,232.7,164.8,233.4 M207.8,233.1c0.2,0.2,0.9,1.2,1.4,2.3c2.1,4.3,6.3,9.4,7.9,9.4
		c0.2,0,0.5,0.1,0.5,0.3c0.2,0.5,3.8,2.5,4.5,2.5c1.1,0,1.4,1.5,1.4,6.1c0,5.6,0.4,5.3-7,5.6c-3.3,0.1-8.5,0.5-11.6,0.8
		s-6.4,0.7-7.4,0.8c-3.7,0.4-12.7,1.8-13.1,2c-0.9,0.6-2-2-2.5-5.6c-0.2-1.9-0.5-3.7-0.6-3.9c-0.7-1.1-2.1-18.8-1.6-20.1
		C180,232.8,206.9,232.5,207.8,233.1 M280.7,233c1.2,0.3,1.4,1.5,0.9,5.2c-0.2,1.7-0.6,4.9-0.8,6.9c-0.8,8.7-2.6,17.8-3.4,17.8
		c-0.2,0-1.6-0.2-3.2-0.5c-8.8-1.5-21.2-2.8-30.2-3.2l-5.8-0.3v-5.4v-5.4l2-0.9c5.3-2.5,9.5-6.6,11.9-11.5c0.6-1.4,1.4-2.6,1.7-2.7
		C254.4,232.8,279.6,232.8,280.7,233 M339.6,233.6c0.3,0.5,0.4,8.9,0.4,24.4c0,26.1,0.2,24.5-2.3,23.3c-1.6-0.8-3.6-1.7-5.7-2.5
		c-1.2-0.5-2.7-1.1-3.4-1.4c-1.9-0.8-7.9-3-9.2-3.4c-0.7-0.2-2.5-0.8-4-1.3c-2.9-1-6.9-2.3-10.4-3.3c-1.1-0.3-2.9-0.8-4-1.2
		s-2.7-0.7-3.6-0.9c-0.9-0.2-2.5-0.6-3.6-1l-2-0.8l0.5-2.1c1.3-5.5,3-18.2,3.3-24.4c0.2-3.7,0.4-5.3,0.8-5.7
		C297.3,232.3,339,232.5,339.6,233.6 M223.1,273.3c0.7,0.7,0.7,68.1,0,68.5c-0.2,0.1-0.9-0.3-1.5-0.9c-1.9-2.2-3-3.5-4.2-5.1
		c-0.7-0.9-1.4-1.8-1.6-2c-0.2-0.2-0.7-0.9-1-1.4c-0.3-0.5-1-1.4-1.4-1.9c-0.8-1.1-2.4-3.4-4.8-7c-0.7-1.1-1.5-2.2-1.6-2.4
		c-2.8-3.5-12.6-22.6-15.5-30.5c-0.3-0.9-1-2.5-1.4-3.7c-3-7.9-3.4-9.9-1.7-10.2c0.6-0.1,1.7-0.4,2.5-0.6c0.8-0.2,3.5-0.6,6-0.8
		c2.5-0.3,4.7-0.5,4.9-0.6c0.2-0.1,3-0.4,6.4-0.6c3.4-0.2,7.4-0.6,8.9-0.7C221.4,272.8,222.6,272.8,223.1,273.3 M247.8,273.6
		c0.9,0.2,2.9,0.4,4.4,0.4c1.5,0,4.1,0.2,5.6,0.4c16.2,2.1,16,2,16.1,3.1c0.1,0.8-2.1,7.8-3.3,10.7c-0.3,0.7-0.8,2-1.2,3
		c-0.4,1-1,2.6-1.4,3.5s-0.7,2-0.7,2.3s-0.2,0.6-0.4,0.6c-0.2,0-0.5,0.5-0.7,1c-0.6,2.5-8,16.2-12.7,23.6c-2,3.2-9,12.9-10.5,14.6
		c-0.3,0.3-1.4,1.6-2.4,2.9c-1,1.3-2,2.2-2.2,2.1c-0.4-0.2-0.4-68.3,0-68.7C238.6,272.7,245.5,273.1,247.8,273.6 M173,280.8
		c0.3,0.6,0.8,1.9,1,2.7c0.5,2,1.6,5.2,2.3,6.8c0.3,0.7,0.6,1.5,0.6,1.7c0,0.4,0.4,1.5,1.8,4.7c0.3,0.7,1.3,2.9,2.1,5.1
		c1.6,3.9,5.3,11.6,6.9,14.5c2.5,4.5,5.4,9.5,6.9,11.8c3.2,5,2.5,5.5-2.8,2c-0.7-0.4-1.5-0.9-1.8-1.1c-0.3-0.1-3.2-1.8-6.3-3.6
		c-3.1-1.8-5.8-3.3-5.9-3.3s-1-0.5-1.9-1.2c-0.9-0.6-2.6-1.6-3.7-2.2c-2.8-1.5-4.3-2.3-11.6-6.6c-3.5-2-7.4-4.3-8.6-4.9
		c-1.2-0.7-2.6-1.5-3.2-1.9c-0.5-0.4-1.1-0.7-1.3-0.7c-0.2,0-8.7-4.8-12-6.8c-0.3-0.2-1.5-0.9-2.7-1.6c-2.2-1.3-2.8-2.6-1.4-3
		c1-0.3,4.5-1.7,5.5-2.2c1.9-0.9,10.2-3.9,12.8-4.6c1.1-0.3,2.2-0.7,2.4-1c0.2-0.2,0.8-0.4,1.3-0.4c0.5,0,1.6-0.3,2.4-0.6
		c0.8-0.3,2.9-1,4.5-1.4c1.7-0.5,3.8-1.1,4.8-1.4c1-0.3,2.2-0.6,2.6-0.6c0.4,0,1.4-0.3,2.2-0.5C172.1,279.4,172.3,279.5,173,280.8
		 M296,281.5c1.2,0.3,3,0.8,4,1.1c1,0.3,3.1,0.9,4.8,1.4c1.7,0.5,3.6,1.1,4.3,1.4c0.7,0.3,1.6,0.6,1.9,0.6c0.5,0,7.4,2.4,9.6,3.4
		c1.3,0.6,7.9,3.1,9,3.5c1.2,0.4,1.2,1.9,0.1,2.3c-0.6,0.2-1.8,0.9-2.8,1.6c-1,0.7-1.8,1.2-2,1.2c-0.1,0-2.8,1.5-5.9,3.3
		c-3.1,1.8-5.9,3.5-6.3,3.6c-0.3,0.1-1.1,0.6-1.8,1.1c-0.7,0.4-1.7,1.1-2.4,1.4c-0.7,0.3-1.7,1-2.4,1.4c-0.7,0.4-1.5,0.9-1.8,1.1
		c-0.3,0.2-4.2,2.4-8.6,5c-4.4,2.6-8.7,5.1-9.6,5.5c-0.9,0.5-1.8,1-2.2,1.2c-1,0.6-12,7-14,8.1c-1,0.5-2.5,1.4-3.3,1.9
		c-1.4,0.8-2.7,1.1-2.7,0.7c0-0.2,2.5-4.3,2.8-4.6c0.4-0.3,4.6-7.6,6.2-10.6c0.8-1.5,1.6-3.1,1.8-3.4c0.5-0.8,4.8-10,4.8-10.2
		c0-0.1,0.5-1.3,1.2-2.8c0.7-1.4,1.2-2.7,1.2-2.9s0.3-0.8,0.6-1.5c0.9-2,3.4-8.8,3.4-9.4c0-0.3,0.3-1.1,0.6-1.8c0.3-0.7,0.8-2,1-2.9
		C288.3,279.4,288.5,279.4,296,281.5 M392.2,310.9c8,3.7,8,15.9-0.1,17.7c-0.6,0.1-1.6,0.4-2.3,0.7c-0.8,0.3-1.4,0.3-2.2,0
		c-0.6-0.2-1.6-0.5-2.1-0.6c-1.4-0.3-4.3-2.9-5.2-4.7C376.6,316.5,384.7,307.5,392.2,310.9"/>
	<path id="path3" class="st2" d="M228.6,84.2c-0.9,0.5-2,1.1-2.6,1.4c-0.5,0.2-1.8,1-2.7,1.6c-1,0.7-2,1.2-2.3,1.2s-0.7,0.2-0.9,0.5
		c-0.2,0.3-0.8,0.7-1.3,1c-1.2,0.6-4.4,2.4-6.6,3.7c-2.5,1.5-3.9,2.3-5.1,2.8c-0.6,0.3-1.1,0.6-1.1,0.8c0,0.2-0.2,0.4-0.5,0.4
		s-1.5,0.6-2.6,1.4c-1.2,0.8-2.3,1.4-2.5,1.4s-0.6,0.2-0.9,0.5c-0.5,0.5-1.1,0.8-5.1,3c-1,0.5-1.9,1.1-2,1.3
		c-0.1,0.2-1.2,0.8-2.4,1.4c-1.2,0.6-2.7,1.5-3.4,1.9c-0.7,0.4-1.6,1-2.2,1.2c-0.5,0.2-1.1,0.6-1.2,0.7c-0.3,0.4-2.4,1.6-3.7,2.1
		c-0.6,0.2-1.1,0.6-1.1,0.8c0,0.2-0.2,0.4-0.5,0.4c-0.3,0-1.5,0.6-2.6,1.4c-1.2,0.8-2.3,1.4-2.5,1.4s-1.1,0.5-2.1,1.2
		c-0.9,0.6-2.1,1.3-2.6,1.4c-0.5,0.2-0.9,0.4-0.9,0.6c0,0.2-0.5,0.5-1.1,0.8c-1.3,0.5-3.3,1.7-5.1,2.8c-0.7,0.4-1.6,1-2.2,1.2
		c-0.5,0.2-1.1,0.6-1.2,0.7c-0.1,0.2-0.8,0.6-1.6,1c-3.4,1.8-4.7,2.6-6.2,3.5c-0.9,0.5-2.1,1.2-2.6,1.5c-0.6,0.3-1.5,0.8-2.2,1.3
		c-0.7,0.4-1.6,1-2.2,1.2c-0.5,0.2-1.1,0.6-1.2,0.7c-0.3,0.4-2.4,1.6-3.7,2.1c-0.6,0.2-1.1,0.6-1.1,0.8c0,0.2-0.2,0.4-0.5,0.4
		s-1.5,0.6-2.6,1.4c-1.2,0.8-2.3,1.4-2.5,1.4s-1.1,0.5-2.1,1.2c-2,1.3-5.7,3.4-7.1,4.1c-0.5,0.2-1.7,0.9-2.7,1.6s-2.1,1.3-2.5,1.4
		c-0.5,0.1-0.8,0.4-0.8,0.6c0,0.7-2.7,0.9-3.7,0.3c-0.6-0.3-2.1-1.1-3.3-1.7c-1.3-0.7-2.4-1.3-2.5-1.5c-0.1-0.2-0.7-0.5-1.2-0.7
		c-0.5-0.2-1.3-0.7-1.8-0.9c-3.4-2.2-4.9-3.1-5.3-3.1c-0.3,0-0.5-0.2-0.5-0.4c0-0.2-0.5-0.6-1.1-0.8c-1-0.4-1.1-0.4-0.8-3.5
		c0.5-5.4,0.1-10.4-0.8-12c-0.3-0.5-0.6-1.2-0.6-1.7s-0.3-1-0.6-1.3c-0.3-0.3-0.6-0.7-0.6-1c0-1-5.5-7.4-6.4-7.4
		c-0.2,0-0.4-0.2-0.6-0.5c-0.3-0.7-5.8-3.5-6.9-3.5c-0.4,0-1-0.2-1.3-0.5c-0.8-0.8-9.7-0.9-11.3-0.1c-0.7,0.4-1.6,0.6-2,0.6
		c-1.1,0-4.3,1.5-6.2,3c-2.6,2-4.9,4.1-4.9,4.6c0,0.2-0.2,0.4-0.4,0.4c-0.5,0-3.6,5.4-3.6,6.2c0,0.4-0.3,1.1-0.6,1.6
		c-1,1.4-1,12.5,0,14c0.4,0.5,0.7,1.3,0.7,1.6c0,2.4,7.1,11.2,9.7,12.1c0.4,0.1,1.1,0.5,1.4,0.8c0.3,0.3,0.8,0.5,1.2,0.5
		c0.3,0,1.1,0.2,1.7,0.6c4.2,2.2,13.1,2.2,17.5,0c2.4-1.2,3.7-1.9,4.7-2.5c0.7-0.4,1.2-0.5,1.4-0.3c0.4,0.5,2.8,2.2,3.1,2.2
		c0.2,0,0.6,0.3,0.9,0.6c0.3,0.3,1.5,1,2.6,1.6c1.1,0.6,2.5,1.4,3.2,1.8s1.7,1,2.4,1.4c0.7,0.3,2.6,1.4,4.4,2.3l3.2,1.7l0.1,67
		l0.1,67l1.1,0.7c0.6,0.4,1.9,1.2,2.9,1.7c1,0.5,2.6,1.5,3.5,2.1c0.9,0.6,1.9,1.2,2.1,1.2c0.2,0,0.9,0.4,1.4,0.8
		c0.6,0.4,1.3,0.8,1.6,0.8c0.3,0,0.5,0.2,0.5,0.4c0,0.2,0.5,0.6,1.1,0.8c1.5,0.6,5.6,3,6.2,3.6c0.3,0.3,0.8,0.5,1.2,0.5
		s0.7,0.2,0.7,0.3c0,0.2,0.9,0.8,1.9,1.3c3.9,2.1,4.7,2.5,4.8,2.8c0.1,0.2,1.2,0.8,2.6,1.5c2.7,1.4,3.3,1.7,5.7,3.2
		c0.9,0.6,2,1.2,2.6,1.5c0.6,0.3,1.5,0.8,2.2,1.3s2.1,1.3,3.2,1.8c1.1,0.6,2.3,1.3,2.6,1.6c0.3,0.3,0.8,0.6,0.9,0.6
		c0.3,0,5.4,2.9,7.8,4.4c0.3,0.2,1.1,0.6,1.6,0.9c0.5,0.3,1.7,0.9,2.6,1.5c2.5,1.6,3.1,2,4.2,2.4c0.5,0.2,1.7,0.9,2.6,1.5
		c0.9,0.6,1.9,1.2,2.2,1.4c0.3,0.2,1.3,0.7,2.2,1.2c0.9,0.5,2.4,1.4,3.4,1.9c1,0.5,2.5,1.4,3.4,2c1.4,0.9,2.1,1.3,4.8,2.7
		c0.4,0.2,1.3,0.8,2,1.2s2.3,1.3,3.7,2c1.4,0.7,2.5,1.4,2.6,1.5c0.1,0.2,1,0.7,2,1.3c2.5,1.3,3.8,2,5.7,3.2c0.9,0.6,1.9,1.1,2.2,1.3
		c0.3,0.2,1.3,0.7,2.2,1.3c0.9,0.5,2,1.2,2.6,1.4c0.5,0.2,1.1,0.6,1.2,0.7c0.1,0.2,0.7,0.5,1.2,0.8c0.6,0.3,1.5,0.8,2.2,1.3
		c0.7,0.4,2.2,1.3,3.4,1.9c1.2,0.6,2.3,1.3,2.4,1.4c0.1,0.2,0.7,0.5,1.2,0.7c1.4,0.6,2.8,1.4,3.3,2c0.9,0.9,4.5,0.1,5.5-1.2
		c0.1-0.1,1.3-0.8,2.6-1.5c1.3-0.7,2.9-1.6,3.6-2c0.7-0.4,1.6-0.9,2-1.2c0.4-0.2,1.5-0.9,2.4-1.4c0.9-0.5,2-1.2,2.4-1.4
		c0.4-0.2,1.3-0.8,2-1.2c0.7-0.4,1.6-1,2.2-1.2c0.5-0.2,1.8-1,2.7-1.6c1-0.7,1.9-1.2,2.1-1.2c0.2,0,1.2-0.5,2.1-1.2
		c1-0.7,2.2-1.4,2.8-1.6c0.6-0.2,1.1-0.6,1.1-0.8c0-0.2,0.3-0.4,0.8-0.4s0.9-0.2,1-0.4c0.1-0.2,0.8-0.7,1.5-1
		c0.7-0.3,1.8-0.9,2.5-1.4c0.7-0.4,1.7-1,2.3-1.2s1.1-0.6,1.1-0.8s0.5-0.5,1.1-0.8c0.6-0.2,1.6-0.8,2.3-1.2c0.7-0.4,1.6-1,2.2-1.2
		c0.5-0.2,1.1-0.6,1.2-0.7c0.1-0.2,1.1-0.7,2.2-1.3c1.1-0.5,2.9-1.6,4-2.3s2.2-1.3,2.5-1.3s0.5-0.2,0.5-0.4c0-0.2,0.5-0.6,1.1-0.8
		c1.7-0.7,3.4-1.7,4-2.3c0.3-0.3,0.7-0.5,0.9-0.5c0.2,0,1.1-0.5,2.1-1.1c2.1-1.4,3.5-2.2,6.2-3.5c1.2-0.6,2.1-1.2,2.1-1.4
		s0.3-0.4,0.7-0.4c0.4,0,1-0.3,1.3-0.6c0.7-0.6,4.5-2.8,6-3.5c0.5-0.2,1.1-0.6,1.2-0.7c0.1-0.2,0.7-0.5,1.2-0.8
		c0.6-0.3,1.5-0.8,2.2-1.3c1.1-0.7,2.8-1.7,6.6-3.7c0.8-0.4,1.9-1.1,2.6-1.5c0.7-0.4,2.1-1.2,3.2-1.8c1.1-0.6,2.3-1.3,2.6-1.6
		c0.3-0.3,1-0.6,1.5-0.8c0.5-0.1,0.9-0.4,0.9-0.6s0.4-0.5,0.9-0.6c0.5-0.2,1.6-0.7,2.5-1.3s2.3-1.4,3.2-1.9s2.2-1.2,3-1.6
		c0.8-0.4,1.6-1,1.9-1.3c0.6-0.6,3.1-0.7,3.5-0.1c0.1,0.2,1.3,0.9,2.5,1.5c1.3,0.6,2.4,1.2,2.5,1.4c0.2,0.3,1.9,1.2,3.5,2
		c0.5,0.2,1.7,0.9,2.6,1.5c0.9,0.6,1.9,1.2,2.1,1.3c3.5,1.8,4.3,3.4,2.8,6c-0.7,1.2-0.7,4-0.2,6.2c0.2,0.9,0.6,2.4,0.8,3.4
		c1,4.7,5.3,10.8,9.4,13.5c0.6,0.4,1.2,0.8,1.3,0.9c0.6,0.6,3.7,2,4.5,2c0.5,0,1.3,0.3,1.7,0.6c1.1,0.8,11.7,0.8,12.8,0
		c0.4-0.3,1.1-0.6,1.5-0.6c0.8,0,5.8-2.6,6.8-3.6c0.4-0.4,1.6-1.6,2.8-2.7c6.2-5.9,8.6-18.8,4.7-25.7c-0.2-0.3-0.7-1.4-1.2-2.4
		c-1.9-3.9-9.2-10.4-11.7-10.4c-0.4,0-1-0.3-1.3-0.6c-1.3-1.3-13.7-1.3-16.1-0.1c-0.6,0.3-2.1,1-3.4,1.6c-1.3,0.6-2.4,1.2-2.5,1.4
		c-0.1,0.2-1-0.1-2-0.8c-1-0.6-2.2-1.4-2.7-1.6c-1-0.5-1.7-0.8-4.3-2.5c-0.9-0.6-2.1-1.3-2.6-1.5c-0.5-0.2-1.4-0.7-2.1-1.2
		c-0.7-0.4-2.2-1.3-3.4-1.9c-1.2-0.6-2.5-1.4-2.9-1.7c-0.7-0.5-0.7-4.3-0.7-67.5v-66.9l-1.5-0.9c-1.5-0.9-3.4-2-6.1-3.4
		c-0.8-0.4-1.5-0.8-1.6-1c-0.2-0.3-5.6-3.3-6.4-3.7c-0.3-0.1-1.1-0.6-1.8-1.1c-0.7-0.4-1.6-1-2.2-1.2c-0.5-0.2-1.8-1-2.7-1.6
		c-1-0.7-1.9-1.2-2.1-1.2c-0.2,0-1.3-0.6-2.5-1.4s-2.4-1.4-2.6-1.4s-0.5-0.2-0.5-0.4c0-0.2-0.4-0.5-0.8-0.6
		c-0.5-0.1-1.6-0.8-2.5-1.4s-2.1-1.3-2.7-1.6c-0.5-0.2-1.7-0.9-2.6-1.4c-0.9-0.6-2-1.2-2.5-1.4c-0.5-0.2-1-0.6-1.1-0.8
		c-0.1-0.2-0.6-0.4-1-0.4s-0.8-0.2-0.8-0.3c0-0.2-0.9-0.8-1.9-1.3c-3.8-2-4.7-2.5-4.9-2.8c-0.2-0.3-3.6-2.2-5.8-3.3
		c-0.7-0.3-1.7-1-2.4-1.4c-0.7-0.4-1.6-1-2.2-1.3c-0.6-0.3-1.7-0.9-2.6-1.5c-1.7-1.1-2.1-1.3-5.4-3.1c-1.2-0.7-3-1.7-3.9-2.3
		c-2.6-1.6-5.8-3.4-7-3.9c-0.6-0.2-1.1-0.6-1.1-0.8c0-0.2-0.3-0.4-0.7-0.6s-1.4-0.7-2.3-1.2s-2.3-1.3-3.2-1.8
		c-0.9-0.5-2.6-1.5-3.7-2.2c-1.2-0.8-2.3-1.4-2.5-1.4s-1.3-0.6-2.5-1.4s-2.4-1.4-2.6-1.4s-0.5-0.2-0.5-0.4c0-0.2-0.5-0.6-1.1-0.8
		c-0.6-0.3-1.6-0.8-2.3-1.2c-0.7-0.4-1.7-1-2.4-1.4c-0.7-0.4-1.7-1-2.4-1.5s-2.2-1.3-3.4-1.9c-1.2-0.6-2.3-1.2-2.4-1.3
		c-0.3-0.3-5.9-3.6-6.1-3.6c-0.1,0-1-0.5-2-1.2C231,83,230.7,83,228.6,84.2 M233.2,85.5c0.6,0.4,1.7,1,2.6,1.5
		c0.9,0.4,2.4,1.3,3.3,1.9c2.5,1.6,5.7,3.4,7,3.9c0.6,0.2,1.1,0.6,1.1,0.8c0,0.2,0.5,0.5,1.1,0.8s1.6,0.8,2.3,1.2
		c0.7,0.4,1.5,0.9,1.8,1c0.3,0.1,0.9,0.4,1.2,0.6c0.3,0.2,2.4,1.4,4.7,2.8c2.2,1.3,4.3,2.4,4.5,2.4s0.4,0.2,0.4,0.4
		c0,0.2,0.9,0.8,2.1,1.4c1.2,0.6,2.8,1.5,3.7,2c0.9,0.5,2,1.1,2.4,1.4c2.2,1.1,5.3,2.9,5.8,3.4c0.3,0.3,0.8,0.6,0.9,0.6
		c0.3,0,4.1,2.2,9,5.2c0.8,0.5,1.8,1.1,2.4,1.3c0.5,0.3,1.3,0.7,1.6,1c0.3,0.3,1.5,1,2.6,1.5c1.1,0.6,2.5,1.4,3.2,1.8
		c0.7,0.4,1.5,0.9,1.8,1c0.6,0.2,6.7,3.7,8,4.6c0.3,0.2,1.1,0.6,1.6,0.9c0.6,0.3,1.1,0.6,1.2,0.8c0.1,0.2,0.7,0.5,1.2,0.7
		c0.5,0.2,1.5,0.8,2.2,1.2c0.7,0.4,1.6,1,2.2,1.2c0.5,0.2,1.1,0.6,1.2,0.7c0.1,0.2,0.7,0.5,1.2,0.8c0.5,0.3,1.3,0.7,1.6,0.9
		c0.3,0.2,2.7,1.6,5.2,3c2.5,1.4,4.9,2.8,5.2,3c0.3,0.2,1,0.6,1.6,0.9c0.9,0.5,3.2,1.8,5,3c0.4,0.3,1.4,0.8,2.1,1.1
		c0.7,0.3,1.4,0.8,1.5,1s0.6,0.4,1,0.4s0.9,0.3,1,0.6c0.1,0.3,0.4,0.6,0.7,0.6c0.3,0,1.4,0.6,2.6,1.4c1.2,0.8,2.3,1.4,2.5,1.4
		s1.3,0.6,2.5,1.4c1.2,0.8,2.4,1.5,2.8,1.6c0.7,0.2,0.7,3.6,0.7,66.7c0,36.6,0.1,66.9,0.2,67.4c0.2,0.6,1.1,1.3,2.8,2.2
		c4,2.1,4.6,2.4,6.3,3.5c0.9,0.6,2.4,1.5,3.4,2c1,0.5,2.6,1.5,3.5,2.1c0.9,0.6,1.9,1.1,2.1,1.1s0.6,0.3,0.8,0.6
		c0.5,0.7,3,0.8,3.4,0.2c0.3-0.4,4.3-2.4,4.9-2.4c0.2,0,0.9-0.3,1.6-0.6c1.8-0.9,11.7-0.6,13.4,0.4c0.7,0.4,1.5,0.7,1.8,0.7
		c0.3,0,0.8,0.2,1,0.4c0.2,0.2,1.1,0.8,2.1,1.3c1.8,1,6.1,4.9,6.1,5.5c0,0.2,0.2,0.5,0.5,0.7c3.7,2.3,5.5,15.6,2.9,21.5
		c-0.3,0.7-0.6,1.5-0.8,1.9c-2.4,7.5-15.2,14.7-23.2,13.1c-5.2-1-6.4-1.3-6.9-1.9c-0.3-0.3-0.8-0.6-1.1-0.6c-2.5,0-11-9.1-11-11.7
		c0-0.3-0.3-0.9-0.7-1.5c-0.6-0.9-0.7-2-0.7-8.2v-7.2l-1.6-1.1c-0.9-0.6-1.8-1.1-2.1-1.1c-0.3,0-0.5-0.2-0.5-0.4
		c0-0.2-0.4-0.5-0.8-0.6c-0.4-0.1-1.7-0.9-2.9-1.6c-1.1-0.8-2.3-1.4-2.6-1.4c-0.3,0-0.5-0.2-0.5-0.4c0-0.2-0.4-0.5-0.9-0.6
		c-0.5-0.1-1.9-0.9-3.2-1.6c-3-1.8-4.5-1.8-7.6,0c-1.3,0.8-2.5,1.4-2.5,1.4c-0.1,0-0.9,0.5-1.9,1.2c-1,0.7-2.2,1.4-2.7,1.6
		c-0.5,0.2-1.5,0.8-2.2,1.2c-0.7,0.4-1.5,0.9-1.8,1.1c-1.3,0.6-6.2,3.5-6.3,3.8c-0.1,0.2-0.3,0.3-0.5,0.3c-0.2,0-2.9,1.5-6.1,3.3
		c-3.1,1.8-6,3.5-6.3,3.6c-0.3,0.2-1.3,0.7-2.2,1.3c-0.9,0.5-2,1.2-2.4,1.4c-0.4,0.2-1.3,0.8-2,1.2c-0.7,0.4-1.6,1-2,1.1
		c-0.8,0.4-11.4,6.5-12.6,7.3c-0.3,0.2-1.1,0.7-1.8,1c-0.7,0.3-1.7,1-2.4,1.4c-0.7,0.4-1.6,1-2.2,1.2c-0.5,0.2-1.1,0.6-1.2,0.7
		c-0.1,0.2-0.7,0.5-1.2,0.8c-1.6,0.8-5.4,3-5.6,3.3c-0.1,0.1-0.6,0.5-1.2,0.7c-0.5,0.3-2.1,1.1-3.4,1.9s-3.3,1.9-4.4,2.4
		c-1.1,0.6-2.3,1.3-2.6,1.6c-0.3,0.3-1,0.6-1.5,0.8c-0.5,0.2-0.9,0.4-0.9,0.6c0,0.2-0.2,0.4-0.5,0.4c-0.3,0-1.4,0.6-2.5,1.3
		s-2.9,1.7-4,2.3c-1.8,0.9-4,2.2-6,3.5c-0.4,0.3-1.3,0.8-2,1.1c-0.7,0.3-1.7,1-2.4,1.4s-1.6,1-2,1.2c-1,0.5-2.6,1.5-8.8,5l-4.8,2.8
		l-2.6-1.4c-1.5-0.8-2.7-1.5-2.8-1.6c-0.2-0.3-3.9-2.4-5.6-3.2c-0.6-0.3-1.1-0.6-1.2-0.8c-0.1-0.2-0.7-0.5-1.2-0.7
		c-0.5-0.2-1.5-0.8-2.2-1.2s-1.7-1.1-2.4-1.4c-0.7-0.3-1.5-0.8-1.8-1c-1.2-0.8-7.5-4.4-7.7-4.4c-0.1,0-1.2-0.6-2.3-1.4
		c-1.2-0.8-2.9-1.8-3.7-2.2s-2.1-1.2-2.8-1.6c-0.7-0.4-1.7-1-2.4-1.4c-0.7-0.3-1.7-1-2.4-1.4c-0.7-0.4-1.5-0.9-1.8-1.1
		c-0.3-0.1-2.7-1.5-5.3-3c-2.6-1.5-4.8-2.7-5.1-2.7c-0.2,0-0.5-0.1-0.5-0.3c-0.1-0.3-5-3.2-6.3-3.8c-0.3-0.1-1.1-0.6-1.8-1.1
		c-0.7-0.4-1.5-0.9-1.8-1.1c-0.3-0.1-2.7-1.5-5.3-3s-4.9-2.7-5.1-2.7c-0.2,0-0.4-0.2-0.4-0.4c0-0.2-0.5-0.6-1.1-0.8
		c-0.6-0.2-1.6-0.8-2.3-1.2s-1.7-1-2.2-1.3c-0.5-0.3-1.1-0.6-1.2-0.8c-0.1-0.2-0.7-0.5-1.2-0.7c-1.5-0.7-5.3-2.8-6-3.5
		c-0.3-0.3-0.8-0.6-0.9-0.6c-0.3,0-5.4-2.9-7.8-4.4c-0.3-0.2-1.1-0.6-1.6-0.9c-0.6-0.3-1.1-0.6-1.2-0.7c-0.1-0.1-0.6-0.4-1.2-0.7
		c-0.6-0.3-1.5-0.9-2.2-1.3s-1.7-1-2.3-1.2c-0.6-0.2-1.1-0.6-1.1-0.8c0-0.2-0.2-0.4-0.4-0.4s-2.1-1-4.2-2.2
		c-2.1-1.2-3.9-2.2-4.1-2.2s-0.5-0.2-0.5-0.3c-0.1-0.4-3.9-2.6-5.6-3.4l-1.1-0.5l-0.1-67.2l-0.1-67.2l-1.6-0.9
		c-0.9-0.5-2.9-1.6-4.4-2.4c-1.5-0.9-3.3-1.8-3.9-2.2c-0.6-0.3-2.3-1.4-3.9-2.3c-1.5-0.9-3-1.7-3.2-1.7c-0.2,0-0.4-0.1-0.4-0.3
		c0-0.2-0.8-0.8-1.8-1.3l-1.8-1l-1.5,0.8c-0.8,0.4-1.9,1.1-2.5,1.5c-0.5,0.4-1.3,0.7-1.6,0.7c-0.4,0-1.2,0.3-1.8,0.6
		c-2.5,1.2-12.7,1.1-14.3-0.1c-0.2-0.2-1-0.5-1.7-0.6c-0.7-0.1-1.5-0.5-1.7-0.8s-0.7-0.6-0.9-0.6c-1.1,0-5.2-3.8-7.1-6.6
		c-5.2-7.7-5.5-21.7-0.5-25.8c0.3-0.3,0.6-0.6,0.6-0.8c0-1.2,7.5-7.5,8.8-7.5c0.2,0,0.9-0.3,1.5-0.6c1.9-1,6.9-1.9,9.5-1.7
		c3.3,0.3,7.2,1.2,7.8,1.8c0.3,0.3,0.8,0.5,1.1,0.5c2,0,8.4,5.8,10,9c0.5,1,1,1.9,1.2,2c0.2,0.1,0.5,0.8,0.6,1.5
		c0.1,0.7,0.5,2,0.9,2.9c0.6,1.5,0.6,5.4,0,11.7c-0.1,1.5,1.7,3.1,6.3,5.5c1.1,0.6,2.3,1.3,2.6,1.5s0.9,0.6,1.2,0.8
		c0.3,0.1,1.7,0.9,3,1.6c1.3,0.7,3.2,1.7,4.2,2.2l1.8,0.9l2.8-1.5c3-1.5,3.2-1.7,6.4-3.7c1.1-0.7,2.2-1.3,2.3-1.3
		c0.2,0,1.1-0.5,2-1.1c2.1-1.4,3.5-2.2,6.2-3.5c1.2-0.6,2.1-1.2,2.1-1.3c0-0.2,0.5-0.5,1.1-0.8c0.6-0.3,2.2-1.1,3.5-1.9
		c1.3-0.8,2.9-1.7,3.6-2c0.7-0.3,1.7-1,2.4-1.4c0.7-0.4,2.1-1.3,3.2-1.8c1.1-0.6,2.8-1.6,3.7-2.2c0.9-0.6,1.9-1.2,2.1-1.2
		c0.2,0,1.1-0.5,2.1-1.2c0.9-0.6,2.7-1.7,3.9-2.3c1.2-0.6,2.8-1.5,3.6-2c0.8-0.5,1.8-1.1,2.3-1.3c0.4-0.2,1.3-0.8,2-1.2
		s1.7-1.1,2.4-1.4c0.7-0.3,1.5-0.8,1.8-1c1-0.7,9.6-5.6,9.8-5.6c0.1,0,0.9-0.5,1.9-1.2c1-0.7,2.2-1.4,2.7-1.6
		c1.4-0.6,5.1-2.7,7.1-4.1c0.9-0.6,1.8-1.2,1.9-1.2c0.1,0,1.7-0.9,3.5-2s3.4-2,3.5-2c0.1,0,1-0.5,2-1.2c1-0.7,2.2-1.4,2.7-1.6
		c0.5-0.2,1.5-0.8,2.2-1.2c0.7-0.4,1.5-0.9,1.8-1.1c0.3-0.1,2.6-1.4,5-2.8c2.4-1.4,4.7-2.7,5.2-3c0.9-0.4,1.6-0.8,4.2-2.5
		C229.9,84.2,231.1,84.1,233.2,85.5 M221.2,111.7c-4.1,4.9-7.4,9.4-12.3,16.7c-1.7,2.5-3.4,5.1-3.7,5.6c-0.4,0.6-1.1,1.7-1.5,2.6
		c-0.5,0.9-1.2,2.2-1.7,3c-0.5,0.8-1.3,2.3-1.8,3.4c-0.5,1.1-1.1,2.3-1.3,2.6c-0.9,1.6-4.2,8.5-5.6,11.8c-0.5,1.1-1,2.3-1.2,2.7
		c-0.2,0.4-0.4,0.9-0.4,1.1c0,0.2-0.3,1-0.6,1.7c-1.7,3.7-4,11.2-3.7,12c0.3,0.7,2.9,1.4,7.3,1.9c2,0.2,4.9,0.6,6.4,0.8
		c8.9,1.3,21.5,1.9,22.2,1.1c0.6-0.7,0.4-68.3-0.2-68.5C222.8,110.1,222,110.8,221.2,111.7 M238.2,110.9c-0.1,0.3-0.1,15.7-0.1,34.3
		l0.1,33.8l3.4,0c4,0,15.6-0.9,18.8-1.5c1.2-0.2,3.7-0.5,5.5-0.7c4.5-0.5,7.7-1.2,8-1.9c0.2-0.5-1.3-5.9-1.9-6.7
		c-0.2-0.2-0.4-1-0.6-1.8c-0.2-0.8-0.5-1.8-0.8-2.2s-0.5-1-0.5-1.3c0-0.5-0.6-1.9-2-5.1c-0.2-0.4-0.8-1.9-1.3-3.2
		c-1-2.5-7.1-14.6-8.5-16.9c-1.2-2-3.3-5.5-3.9-6.3c-0.3-0.4-1.3-2-2.4-3.5c-1-1.5-1.9-2.8-1.9-3c0-0.1-0.9-1.3-1.9-2.7
		c-1-1.3-2.2-2.9-2.6-3.5c-0.4-0.6-0.9-1.3-1.2-1.6s-1.7-2-3.1-3.7C238.6,110.2,238.5,110.1,238.2,110.9 M195.8,120
		c-0.2,0.2-1.4,0.9-2.8,1.7c-2.8,1.6-6.1,3.4-8.1,4.7c-0.8,0.5-1.7,1-2.1,1.2c-0.3,0.2-2.4,1.4-4.6,2.7c-2.2,1.3-4.4,2.5-4.8,2.7
		c-0.9,0.4-1.6,0.8-4.1,2.5c-0.9,0.6-2.1,1.3-2.6,1.5c-0.5,0.2-1.2,0.6-1.5,0.8c-1.2,0.8-12.4,7.2-12.5,7.2c-0.1,0-1.1,0.6-2.3,1.4
		c-1.2,0.8-2.9,1.8-3.7,2.2c-0.9,0.4-2.2,1.2-3,1.6c-0.8,0.5-2.2,1.3-3.2,1.8c-1,0.5-2.1,1.2-2.4,1.4c-0.3,0.2-1.4,0.9-2.4,1.4
		c-4.7,2.5-5.9,3.8-4.1,4.5c1.9,0.8,3.9,1.6,5,2.2c0.6,0.3,1.3,0.5,1.6,0.5c0.3,0,1.8,0.5,3.4,1.1c2.8,1.2,8.8,3.2,14,4.8
		c1.5,0.5,3.4,1,4.1,1.3c3.8,1.2,10.4,2.8,11.9,2.9c1.3,0.1,2.5-1.7,2.6-3.5c0-0.4,0.3-1.3,0.6-1.9c0.3-0.6,0.7-1.7,0.8-2.4
		c0.2-0.7,0.4-1.6,0.6-1.9c0.2-0.3,0.7-1.7,1.2-3c1-2.6,2.2-5.9,2.8-7.2c3-7.1,7.3-15.6,11.2-22.2c1.9-3.2,3.8-6.3,4.3-7
		C196.8,121.1,197.1,118.7,195.8,120 M263.6,119.8c0,0.1,0.8,1.3,1.7,2.7c1,1.4,2.8,4.3,4,6.5s2.5,4.3,2.7,4.6
		c1.6,2.6,10,20.1,10,20.8c0,0.2,0.3,0.9,0.6,1.5c0.7,1.3,3.4,8.9,3.4,9.6c0,0.2,0.3,1,0.6,1.8c0.3,0.7,0.8,2.1,1,3
		c0.6,2.2,1.2,2.3,5.9,1.1c2.2-0.6,4.6-1.2,5.3-1.4c0.8-0.2,1.9-0.5,2.4-0.7c0.5-0.2,2.1-0.7,3.4-1.1c3.8-1.1,7.5-2.3,8.6-2.7
		c1.2-0.5,6.4-2.4,8.4-3.1c1.6-0.6,4.7-1.9,5.7-2.4c0.4-0.2,0.9-0.4,1.2-0.4c1.1,0,2-1,1.7-1.9c-0.2-0.5-0.4-0.9-0.6-0.9
		c-0.2,0-3-1.5-6.2-3.4c-3.2-1.9-6-3.4-6.1-3.4c-0.1,0-0.5-0.3-0.9-0.6c-0.3-0.3-1.5-1-2.6-1.6c-1.1-0.6-2.3-1.2-2.6-1.4
		c-2.2-1.4-14.4-8.4-14.7-8.4c-0.2,0-0.6-0.3-0.9-0.6c-0.3-0.3-1.5-1-2.6-1.6c-1.1-0.6-2.5-1.4-3.2-1.8c-0.7-0.4-2-1.2-3-1.7
		c-1-0.5-2.6-1.5-3.6-2.1c-1.6-1-3.2-1.9-6.6-3.8c-0.7-0.4-1.9-1.1-2.8-1.6c-0.9-0.5-2-1.2-2.6-1.5c-0.6-0.3-1.5-0.8-2.2-1.3
		C266.3,120.3,263.6,119.2,263.6,119.8 M67.8,124c-8.7,4.7-5.6,18,4.1,18c3.1,0,8.4-3.1,8.4-5c0-0.2,0.4-1.2,0.8-2c1-2,1-2,0.1-4.7
		C79.5,124.4,72.9,121.3,67.8,124 M121,172.1c-0.6,4,0,46.3,0.6,46.7c0.4,0.2,9.1,0.4,21.7,0.4l21.1,0l0.6-0.9c0.4-0.6,0.7-3,1-8
		c0.2-3.9,0.5-7.3,0.6-7.4c0.1-0.2,0.4-2,0.6-4.1c0.2-2.1,0.7-5.1,1-6.8c1-5.2-0.2-7-4.6-7.1c-0.7,0-10.5-2.7-12.4-3.4
		c-0.8-0.3-2.8-1-4.6-1.5c-3.4-1.1-4.1-1.3-9.2-3.2c-4-1.4-8.3-3.2-11-4.4c-1.5-0.7-4.7-1.9-5-1.9
		C121.3,170.4,121.1,171.2,121,172.1 M335.8,171.7c-1.5,0.7-3.3,1.5-4,1.8c-2.5,1.1-8.6,3.4-9.2,3.4c-0.3,0-0.7,0.1-0.8,0.3
		c-0.1,0.2-2.6,1.1-5.5,2c-2.9,0.9-5.9,2-6.6,2.3c-0.7,0.3-1.6,0.6-1.9,0.6s-1.6,0.3-2.9,0.8c-1.3,0.4-3.5,1.1-4.9,1.4
		c-1.4,0.4-3.4,0.9-4.4,1.2c-1,0.3-2.3,0.7-2.9,0.8c-0.9,0.2-1.1,0.4-0.8,0.9c0.4,0.9,1.3,6.2,2.8,16.1c0.3,2.3,0.7,6.7,0.9,9.6
		c0.2,4.2,0.4,5.5,0.9,5.9c1.2,1,42.7,0.7,43.3-0.3c0.7-1.4,0.4-47.8-0.4-47.9C338.9,170.5,337.3,171,335.8,171.7 M70.3,174.7
		c0.9,0.1,2.4,0.1,3.2,0c0.8-0.1,0-0.2-1.7-0.2C70,174.5,69.4,174.6,70.3,174.7 M276.4,189.3c-0.5,0.2-2.3,0.5-3.8,0.7
		c-1.5,0.2-4.7,0.6-7,0.9c-6.8,1-13.3,1.6-20.6,1.8l-6.8,0.2v5.1v5.1l2,0.9c5,2.2,9.2,6.3,11.6,11.3c1.9,4,0.6,3.7,15.6,3.7
		c16,0,14.9,0.4,14.2-5.3c-0.2-1.8-0.6-5-0.8-7c-0.7-6.9-2.4-16.3-3.1-17.5C277.5,189,277.1,189,276.4,189.3 M183.5,189.9
		c-0.9,1-1.7,4.6-2.6,11.3c-0.1,0.8-0.5,3.6-0.8,6.2c-0.3,2.6-0.6,6.3-0.5,8.2l0.1,3.4l13.2,0.1c16.1,0.1,14.6,0.5,16.6-3.8
		c2.2-4.6,6.1-8.5,10.6-10.8l3.2-1.6l0.1-4.5c0.1-5.9,0.4-5.6-6.1-5.7c-2.9,0-6.8-0.2-8.7-0.4c-1.9-0.2-5.5-0.5-8-0.8
		c-2.5-0.2-5.5-0.6-6.6-0.8c-1.1-0.2-3.5-0.6-5.4-0.8c-1.9-0.2-3.7-0.5-4-0.6C184.4,189.3,183.9,189.5,183.5,189.9 M228.3,216.5
		c-2.5,0.5-5.8,3.7-6.6,6.3c-2.3,7.7,5.6,14.8,12.8,11.6C245.1,229.6,239.7,214.1,228.3,216.5 M121.6,233.2
		c-0.5,0.3-0.6,3.5-0.6,24.5c0,26.8-0.2,24.7,2.4,23.5c0.4-0.2,2.4-1,4.4-1.8c2-0.8,4.1-1.7,4.8-2c0.7-0.3,3.1-1.2,5.4-2
		s4.7-1.7,5.4-2c0.7-0.3,2.6-0.9,4.2-1.4c1.6-0.5,3.7-1.1,4.6-1.4c0.9-0.3,2.6-0.8,3.8-1.1s3.1-0.9,4.2-1.2c1.1-0.3,2.6-0.7,3.4-0.9
		c5.5-1.1,5.7-1.3,4.9-5.2c-1.3-6.8-2.1-13.4-2.9-23.9c-0.2-2.5-0.6-4.5-0.9-4.9C164.2,232.7,122.8,232.5,121.6,233.2 M179.7,233.4
		c-0.5,1.3,0.9,19,1.6,20.1c0.1,0.2,0.4,1.9,0.6,3.9c0.4,3.6,1.6,6.1,2.5,5.6c0.4-0.3,9.5-1.6,13.1-2c1-0.1,4.3-0.4,7.4-0.8
		s8.3-0.7,11.6-0.8c7.4-0.3,7,0,7-5.6c0-4.7-0.3-6.1-1.4-6.1c-0.7,0-4.3-2-4.5-2.5c-0.1-0.2-0.3-0.3-0.5-0.3c-1.6,0-5.8-5.1-7.9-9.4
		c-0.5-1.1-1.2-2.1-1.4-2.3C206.9,232.5,180,232.8,179.7,233.4 M253.7,233.1c-0.3,0.1-1,1.3-1.7,2.7c-2.4,4.9-6.6,9.1-11.9,11.5
		l-2,0.9v5.4v5.4l5.8,0.3c9,0.4,21.4,1.7,30.2,3.2c1.5,0.3,3,0.5,3.2,0.5c0.9,0,2.6-9.1,3.4-17.8c0.2-2.1,0.5-5.2,0.8-6.9
		c0.5-3.7,0.3-4.9-0.9-5.2C279.6,232.8,254.4,232.8,253.7,233.1 M296.3,233.4c-0.4,0.4-0.6,2.1-0.8,5.7c-0.3,6.2-2,18.9-3.3,24.4
		l-0.5,2.1l2,0.8c1.1,0.4,2.8,0.9,3.6,1c0.9,0.2,2.5,0.6,3.6,0.9s2.9,0.8,4,1.2c3.5,1,7.5,2.3,10.4,3.3c1.5,0.5,3.3,1.1,4,1.3
		c1.3,0.4,7.3,2.6,9.2,3.4c0.7,0.3,2.2,0.9,3.4,1.4c2.1,0.8,4.1,1.7,5.7,2.5c2.5,1.2,2.3,2.8,2.3-23.3c0-15.5-0.1-23.9-0.4-24.4
		C339,232.5,297.3,232.3,296.3,233.4 M217,273.2c-1.5,0.2-5.5,0.5-8.9,0.7c-3.4,0.2-6.2,0.5-6.4,0.6c-0.2,0.1-2.4,0.4-4.9,0.6
		c-2.5,0.3-5.2,0.6-6,0.8c-0.8,0.2-1.9,0.5-2.5,0.6c-1.7,0.3-1.3,2.4,1.7,10.2c0.5,1.2,1.1,2.9,1.4,3.7c2.9,7.8,12.6,27,15.5,30.5
		c0.2,0.2,0.9,1.3,1.6,2.4c2.4,3.7,4,6,4.8,7c0.5,0.6,1.1,1.5,1.4,1.9c0.3,0.5,0.8,1.1,1,1.4c0.2,0.2,0.9,1.2,1.6,2
		c1.2,1.6,2.3,3,4.2,5.1c0.6,0.7,1.3,1.1,1.5,0.9c0.7-0.4,0.6-67.9,0-68.5C222.6,272.8,221.4,272.8,217,273.2 M238.3,273
		c-0.4,0.4-0.4,68.5,0,68.7c0.2,0.1,1.2-0.8,2.2-2.1c1-1.3,2.1-2.5,2.4-2.9c1.5-1.7,8.5-11.4,10.5-14.6c4.7-7.4,12.1-21.1,12.7-23.6
		c0.1-0.6,0.4-1,0.7-1c0.2,0,0.4-0.3,0.4-0.6s0.3-1.4,0.7-2.3s1-2.5,1.4-3.5c0.4-1,0.9-2.3,1.2-3c1.3-2.9,3.4-9.9,3.3-10.7
		c-0.2-1.1,0.1-1.1-16.1-3.1c-1.5-0.2-4.1-0.4-5.6-0.4c-1.5,0-3.5-0.2-4.4-0.4C245.5,273.1,238.6,272.7,238.3,273 M170,280.2
		c-0.8,0.3-1.8,0.5-2.2,0.5c-0.4,0-1.6,0.3-2.6,0.6c-1,0.3-3.1,1-4.8,1.4c-1.6,0.5-3.7,1.1-4.5,1.4c-0.8,0.3-1.9,0.6-2.4,0.6
		c-0.5,0-1.1,0.2-1.3,0.4c-0.2,0.2-1.3,0.7-2.4,1c-2.5,0.7-10.8,3.7-12.8,4.6c-1,0.5-4.5,1.9-5.5,2.2c-1.4,0.4-0.8,1.7,1.4,3
		c1.2,0.7,2.4,1.4,2.7,1.6c3.2,2,11.7,6.8,12,6.8c0.2,0,0.7,0.3,1.3,0.7c0.5,0.4,1.9,1.3,3.2,1.9c1.2,0.7,5.1,2.9,8.6,4.9
		c7.3,4.3,8.8,5.1,11.6,6.6c1.1,0.6,2.8,1.6,3.7,2.2c0.9,0.6,1.8,1.2,1.9,1.2s2.8,1.5,5.9,3.3c3.1,1.8,5.9,3.5,6.3,3.6
		c0.3,0.1,1.1,0.6,1.8,1.1c5.3,3.5,6,3,2.8-2c-1.5-2.3-4.4-7.3-6.9-11.8c-1.6-2.9-5.3-10.6-6.9-14.5c-0.9-2.1-1.9-4.4-2.1-5.1
		c-1.4-3.2-1.8-4.3-1.8-4.7c0-0.2-0.3-1-0.6-1.7c-0.7-1.6-1.8-4.8-2.3-6.8C173,279.8,172.5,279.3,170,280.2 M288.6,280.1
		c-0.3,0.2-0.8,1.1-1.1,2c-0.2,0.9-0.7,2.3-1,2.9c-0.3,0.7-0.6,1.5-0.6,1.8c0,0.6-2.5,7.4-3.4,9.4c-0.3,0.7-0.6,1.4-0.6,1.5
		s-0.5,1.4-1.2,2.9c-0.7,1.4-1.2,2.7-1.2,2.8c0,0.2-4.3,9.3-4.8,10.2c-0.2,0.3-1,1.9-1.8,3.4c-1.6,3-5.8,10.3-6.2,10.6
		c-0.3,0.3-2.8,4.4-2.8,4.6c0,0.4,1.3,0.1,2.7-0.7c0.8-0.5,2.3-1.3,3.3-1.9c2-1.1,13-7.5,14-8.1c0.3-0.2,1.3-0.8,2.2-1.2
		c0.9-0.5,5.2-3,9.6-5.5c4.4-2.6,8.3-4.8,8.6-5c0.3-0.2,1.1-0.6,1.8-1.1c0.7-0.4,1.7-1.1,2.4-1.4c0.7-0.3,1.7-1,2.4-1.4
		c0.7-0.4,1.5-0.9,1.8-1.1c0.3-0.1,3.2-1.8,6.3-3.6c3.1-1.8,5.8-3.3,5.9-3.3c0.1,0,1-0.5,2-1.2c1-0.7,2.2-1.4,2.8-1.6
		c1.2-0.4,1.1-1.9-0.1-2.3c-1.1-0.4-7.8-2.9-9-3.5c-2.2-1-9.1-3.4-9.6-3.4c-0.3,0-1.1-0.3-1.9-0.6c-0.7-0.3-2.7-1-4.3-1.4
		c-1.6-0.5-3.8-1.1-4.8-1.4C292.6,280.4,289.3,279.7,288.6,280.1 M386.8,310.4c-7.7,2.3-9.9,11.5-3.9,16.6c0.9,0.8,2.2,1.6,2.7,1.7
		c0.6,0.1,1.5,0.4,2.1,0.6c0.8,0.3,1.4,0.3,2.2,0c0.6-0.2,1.6-0.5,2.3-0.7c4.9-1.1,8-9.3,5-13.5
		C394.5,311.3,390.2,309.3,386.8,310.4 M30,30"/>
	<path id="path4" class="st3" d="M228.2,63.4c-0.1,0.3-0.5,0.6-0.8,0.6c-0.3,0-0.6,0.3-0.6,0.8c0,0.6-0.3,0.8-1.4,0.8
		c-1,0-1.4,0.2-1.4,0.6c0,0.4-0.4,0.6-1.2,0.6s-1.2,0.2-1.2,0.6c0,0.3-0.3,0.6-0.8,0.6c-1.3,0-2,0.4-1.8,1c0.1,0.4-0.1,0.6-0.6,0.6
		c-0.5,0-0.8,0.3-0.8,0.6c0,0.4-0.4,0.6-1.2,0.6c-0.6,0-1.3,0.3-1.5,0.6c-0.2,0.3-0.9,0.7-1.5,0.7c-0.9,0.1-1.1,0.3-1.1,0.8
		c0.1,0.6-1.1,1-2.4,0.7c-0.2,0-0.2,0.1-0.1,0.4c0.1,0.2-0.2,0.6-0.8,0.8s-1,0.6-1,0.8c0,0.2-0.5,0.4-1.2,0.4
		c-0.9,0-1.2,0.2-1.2,0.8c0,0.7-0.8,1.1-2.1,0.8c-0.2,0-0.4,0.2-0.5,0.6s-0.5,0.6-0.8,0.6c-0.3,0-0.6,0.3-0.6,0.6
		c0,0.4-0.4,0.6-1.4,0.6c-1.1,0-1.4,0.2-1.4,0.8c0,0.7-1,1.1-2.5,0.8c-0.2,0-0.3,0.2-0.3,0.6c0,0.4-0.4,0.6-1.2,0.6
		c-0.9,0-1.2,0.1-1,0.6c0.2,0.4,0,0.6-0.8,0.6c-0.7,0-1,0.2-1,0.8c0,0.6-0.3,0.8-1.2,0.8c-0.8,0-1.2,0.2-1.2,0.6
		c0,0.5-1.3,0.9-2.5,0.6c-0.2,0-0.2,0.1-0.1,0.4c0.2,0.4-0.9,1-1.6,0.8c-0.4-0.1-1.3,1-1.1,1.3c0.1,0.2-0.2,0.3-0.6,0.3
		c-0.5,0-0.8,0.3-0.8,0.6c0,0.4-0.4,0.6-1.2,0.6c-0.7,0-1.3,0.3-1.4,0.6c-0.1,0.4-0.7,0.6-1.5,0.6c-0.7,0-1.1,0.1-1,0.3
		c0.4,0.6-0.4,1.3-1.5,1.4c-0.6,0.1-1.2,0.3-1.3,0.6c-0.1,0.3-0.4,0.5-0.8,0.5c-0.3,0-0.6,0.3-0.6,0.6s-0.3,0.6-0.8,0.6
		c-1.2,0-2,0.4-2,1c0,0.3-0.4,0.6-1,0.6c-0.5,0-1.2,0.3-1.6,0.6c-0.3,0.3-0.8,0.6-1,0.6c-0.2,0-0.4,0.3-0.4,0.6
		c0,0.4-0.4,0.6-1.2,0.6c-0.9,0-1.3,0.2-1.4,0.8c-0.1,0.5-0.5,0.8-1.2,0.8c-0.5,0-1.1,0.3-1.2,0.6c-0.1,0.3-0.6,0.6-1,0.6
		c-0.4,0-0.8,0.2-1,0.4c-0.1,0.2-0.4,0.3-0.6,0.2c-0.2-0.1-0.4,0-0.4,0.2c0,0.2-0.3,0.4-0.6,0.4c-0.3,0-0.6,0.4-0.6,0.8
		c0,0.6-0.3,0.8-1.4,0.8c-1,0-1.4,0.2-1.4,0.6c0,0.4-0.4,0.6-1.2,0.6c-0.8,0-1.2,0.2-1.2,0.6c0,0.4-0.4,0.6-1.2,0.6
		c-0.8,0-1.2,0.2-1.4,0.8c-0.1,0.4-0.6,0.8-1,0.8c-0.4,0-0.8,0.3-0.8,0.6c0,0.4-0.4,0.6-1.2,0.6c-0.8,0-1.2,0.2-1.2,0.6
		c0,0.3-0.6,0.7-1.4,0.8c-0.8,0.2-1.4,0.5-1.4,0.8c0,0.3-0.3,0.6-0.6,0.6s-0.6,0.3-0.6,0.6c0,0.4-0.4,0.6-1.4,0.6
		c-1,0-1.4,0.2-1.4,0.6c0,0.5-1,0.8-2.1,0.6c-0.2,0-0.4,0.3-0.5,0.8c-0.2,0.7-1.1,1-2.2,0.9c-0.2,0-0.3,0.2-0.2,0.4
		c0.1,0.3-0.3,0.6-0.8,0.6c-0.5,0.1-0.9,0.4-0.9,0.7c0,0.4-0.4,0.6-1.2,0.6c-0.9,0-1.2,0.2-1.2,0.8c0,0.6-0.3,0.8-1.4,0.8
		c-1,0-1.4,0.2-1.4,0.6c0,0.5-0.7,0.8-1.7,0.7c-0.4-0.1-2.3,1.8-2.3,2.3c0,0.3-0.6,0.5-1.4,0.5c-1,0-1.4,0.2-1.4,0.6
		c0,0.4-0.4,0.6-1.2,0.6c-0.8,0-1.2,0.2-1.2,0.6c0,0.3-0.3,0.6-0.8,0.6c-1.3,0-2,0.4-1.8,1c0.2,0.4-0.1,0.6-0.8,0.6h-1l0-3.7
		c0-2,0-3.8,0-4s-0.2-0.3-0.6-0.3c-0.5,0-0.6-0.5-0.6-2s-0.1-2-0.6-2c-0.5,0-0.8-1.3-0.6-2.5c0-0.2-0.3-0.3-0.8-0.3
		c-0.6,0-0.8-0.3-0.8-1.4c0-1-0.2-1.4-0.6-1.4c-0.4,0-0.6-0.4-0.6-1.2c0-0.8-0.2-1.2-0.6-1.2c-0.3,0-0.6-0.3-0.6-0.6
		c0-0.4-0.4-0.7-0.8-0.8c-0.5-0.1-0.8-0.5-0.8-1.2c0-0.5-0.3-1.1-0.6-1.2c-0.3-0.1-0.6-0.4-0.6-0.6c0-0.5-1.8-2.4-2.3-2.4
		c-0.3,0-0.5-0.3-0.5-0.6c0-0.3-0.3-0.6-0.6-0.6s-0.6-0.2-0.6-0.5c0-0.3-0.5-0.7-1-1c-0.6-0.3-0.9-0.7-0.8-0.9
		c0.1-0.2,0-0.4-0.3-0.4C96.7,99,96,98.8,96,98.2c0-0.3-0.4-0.6-0.8-0.6c-0.4,0-0.8-0.1-0.8-0.3c0.1-0.9-0.2-1.2-1.1-1.2
		c-0.6,0-1.2-0.3-1.4-0.7c-0.2-0.4-0.9-0.6-1.5-0.6c-0.6,0-1.2-0.3-1.4-0.6c-0.2-0.4-0.8-0.6-2-0.6c-1.5,0-1.8-0.1-1.8-0.8
		c0-0.7-0.3-0.8-2.6-0.8c-1.9,0-2.6-0.2-2.8-0.6c-0.2-0.5-1.5-0.6-8.1-0.6c-4.7,0-7.7,0.1-7.6,0.4c0.4,0.6-0.3,0.8-2.9,0.9
		c-2.1,0.1-2.5,0.2-2.5,0.8c0,0.6-0.3,0.7-2,0.7c-1.5,0-2,0.1-2,0.6c0,0.4-0.4,0.6-1.2,0.6c-0.7,0-1.3,0.3-1.4,0.6
		c-0.1,0.4-0.7,0.6-1.4,0.6c-0.7,0-1.2,0.1-1.2,0.3c0.1,0.9-0.1,1.3-0.8,1.3c-0.4,0-0.8,0.3-0.8,0.6c0,0.4-0.4,0.6-1.2,0.6
		c-0.9,0-1.2,0.1-1,0.6c0.2,0.5-0.2,0.8-1.1,0.6c-0.2,0-0.4,0.3-0.5,0.8c-0.1,0.4-0.5,0.8-0.8,0.8c-0.3,0-0.6,0.3-0.6,0.6
		c0,0.3-0.2,0.6-0.6,0.6c-0.3,0-0.6,0.4-0.8,0.8c-0.1,0.4-0.4,0.8-0.7,0.7c-0.3-0.1-0.6,0.3-0.7,0.8c-0.1,0.5-0.4,0.9-0.6,0.8
		c-0.2-0.1-0.5,0.4-0.5,1c-0.1,0.6-0.4,1.1-0.7,1.1c-0.3,0-0.6,0.4-0.6,0.8c0,0.5-0.3,0.8-0.8,0.8c-0.6,0-0.8,0.3-0.8,1.2
		c0,0.7-0.3,1.3-0.6,1.4c-0.4,0.1-0.6,0.7-0.6,1.4c0,0.8-0.2,1.2-0.6,1.2c-0.4,0-0.6,0.4-0.6,1.4c0,1.3-0.3,1.6-1.3,1.4
		c-0.2,0-0.3,1.1-0.3,2.5c0,1.9-0.2,2.6-0.6,2.8c-0.9,0.3-0.9,18.7,0,19.6c0.4,0.4,0.6,1.3,0.6,2.4c0,2.2,0.3,3.1,1,2.8
		c0.4-0.2,0.6,0.1,0.6,1.2c0,0.8,0.2,1.6,0.6,1.8c0.3,0.2,0.6,0.8,0.7,1.4c0,0.6,0.2,1,0.4,0.9c0.3-0.2,0.5,0.1,0.9,1.9
		c0.2,0.8,0.4,1,0.8,0.9c0.4-0.2,0.6,0,0.6,0.6c0,0.5,0.3,0.8,0.6,0.8c0.3,0,0.6,0.4,0.6,0.8c0,0.4,0.2,0.8,0.5,0.8
		c0.3,0,0.7,0.6,0.8,1.2c0.2,0.9,0.4,1.2,0.8,1c0.4-0.2,0.6,0,0.6,0.6c0,0.4,0.2,0.8,0.6,0.8s0.8,0.3,1.1,0.7c0.5,0.6,0.5,0.6,0,0.3
		c-0.4-0.2-0.5-0.2-0.3,0.1c0.2,0.3,0.8,0.5,1.5,0.5c0.8,0,1.2,0.2,1.2,0.6c0,0.3,0.3,0.6,0.6,0.6c0.3,0,0.6,0.3,0.6,0.6
		s0.4,0.7,0.8,0.8c0.4,0.1,0.8,0.5,0.8,0.8s0.1,0.6,0.3,0.5c1.1-0.2,2.1,0.1,2.1,0.6c0,0.4,0.4,0.6,1.4,0.6c1.1,0,1.4,0.2,1.4,0.8
		c0,0.6,0.3,0.8,1.2,0.8c0.6,0,1.3,0.3,1.5,0.6c0.2,0.3,1.1,0.6,2.1,0.7c1.2,0.1,1.8,0.3,1.7,0.6c-0.1,0.4,0.8,0.5,3.4,0.5
		c2.7,0,3.6,0.1,3.9,0.6c0.4,0.6,6.8,1,8.8,0.5c0.2,0,0.5-0.1,0.7,0s0.3-0.2,0.3-0.6c0-0.5,0.6-0.6,3.2-0.6c2.5,0,3.3-0.1,3.4-0.6
		c0.3-0.8,1.7-0.8,1.7,0c0,0.4,0.4,0.6,1.2,0.6c0.8,0,1.2,0.2,1.4,0.8c0.2,0.5,0.5,0.7,0.8,0.6c0.5-0.2,0.6,9.4,0.6,67.2v67.4h1.2
		c0.8,0,1.2,0.2,1.4,0.8c0.1,0.4,0.5,0.8,0.7,0.8c1.2-0.1,1.9,0.1,1.9,0.6c0,0.3,0.3,0.6,0.6,0.6c0.3,0,0.7,0.2,0.8,0.5
		s0.7,0.6,1.3,0.6c0.6,0,1.3,0.3,1.6,0.8c0.5,0.7,0.7,0.8,1.9,0.9c0.3,0,0.6,0.3,0.6,0.6c0,0.4,0.4,0.6,1.2,0.6
		c0.7,0,1.3,0.3,1.4,0.6c0.1,0.3,0.5,0.6,0.8,0.6c0.3,0,0.6,0.2,0.6,0.5s0.6,0.7,1.3,0.9c0.7,0.2,1.3,0.6,1.2,0.9
		c-0.1,0.3,0.4,0.5,1.3,0.5c1,0,1.4,0.2,1.4,0.6c0,0.3,0.4,0.6,0.8,0.6c0.4,0,0.8,0.2,0.7,0.4s0.2,0.5,0.7,0.6
		c0.4,0.1,1.3,0.5,1.9,1c0.6,0.5,1.5,0.8,1.9,0.8c0.5,0,0.8,0.3,0.8,0.6c0,0.4,0.4,0.6,1.2,0.6c0.8,0,1.2,0.2,1.4,0.8
		c0.1,0.5,0.4,0.7,0.6,0.6s0.6,0.1,0.8,0.6c0.3,0.5,0.8,0.8,1.4,0.8c0.5,0,1.1,0.3,1.2,0.6c0.1,0.3,0.7,0.6,1.4,0.6
		c0.7,0,1.2,0.2,1.2,0.6c0,0.3,0.6,0.7,1.4,0.8c0.8,0.2,1.4,0.5,1.4,0.8c0,0.3,0.3,0.6,0.6,0.6s0.6,0.2,0.6,0.4
		c0,0.2,0.6,0.5,1.4,0.6c0.9,0.2,1.4,0.5,1.6,1c0.1,0.5,0.6,0.8,1.2,0.8c0.7,0,1,0.2,1,0.6c0,0.4,0.4,0.6,1.4,0.6s1.4,0.2,1.4,0.6
		c0,0.3,0.4,0.6,0.8,0.6c0.5,0,0.7,0.2,0.6,0.6c-0.1,0.3-0.1,0.6,0.1,0.6c1.4,0.1,2.4,0.5,2.7,1c0.2,0.3,0.9,0.6,1.5,0.6
		c0.8,0,1.2,0.2,1.2,0.6c0,0.3,0.3,0.6,0.7,0.6s0.9,0.3,1.2,0.7c0.3,0.4,0.7,0.7,0.9,0.8c0.2,0,0.6,0.1,0.8,0.1
		c0.2,0,0.4,0.3,0.4,0.6c0,0.4,0.4,0.6,1.2,0.6c0.7,0,1.3,0.3,1.4,0.6c0.1,0.4,0.7,0.6,1.4,0.6c0.7,0,1.2,0.2,1.2,0.4
		c0,0.5,1.9,2.4,2.1,2.2c0.3-0.3,2.3,0.7,2.1,1.1c-0.1,0.2-0.1,0.4,0.1,0.4c1.5-0.3,2.5,0.1,2.5,0.8c0,0.6,0.3,0.8,1.2,0.8
		c0.7,0,1.3,0.3,1.4,0.6c0.1,0.3,0.5,0.6,0.8,0.6c0.3,0,0.6,0.3,0.6,0.6c0,0.4,0.4,0.6,1.2,0.6c0.8,0,1.3,0.3,1.5,0.7
		c0.2,0.4,0.5,0.7,0.8,0.7c0.3,0,0.8,0.1,1.1,0.1c0.3,0,0.6,0.3,0.6,0.7c0,0.3,0.3,0.6,0.6,0.6c0.3,0,0.7,0.2,0.8,0.5
		c0.1,0.3,0.7,0.6,1.3,0.6c0.6,0,1.3,0.3,1.6,0.9c0.3,0.5,1,0.8,1.5,0.8c0.6,0,1,0.2,1,0.6c0,0.4,0.4,0.6,1.2,0.6
		c0.7,0,1.3,0.3,1.4,0.6c0.1,0.3,0.5,0.6,0.8,0.6c0.3,0,0.6,0.3,0.6,0.6c0,0.3,0.6,0.7,1.4,0.8c0.8,0.1,1.4,0.5,1.4,0.7
		c0,0.3,0.5,0.5,1.1,0.6c0.6,0,1.2,0.4,1.4,0.7c0.2,0.3,0.9,0.6,1.5,0.6c0.8,0,1.2,0.2,1.2,0.6c0,0.3,0.4,0.8,1,1
		c0.5,0.2,1,0.5,1,0.6c0,0.1-0.2,0.1-0.5-0.1c-0.3-0.2-0.4-0.1-0.2,0.2c0.2,0.3,0.8,0.5,1.5,0.5c0.8,0,1.2,0.2,1.2,0.6
		c0,0.4,0.4,0.6,1.2,0.6c0.8,0,1.2,0.2,1.2,0.6c0,0.6,0.8,1,2,1c0.4,0,0.8,0.3,0.8,0.6c0,0.3,0.3,0.6,0.6,0.6c0.3,0,0.7,0.3,0.8,0.6
		c0.1,0.3,0.4,0.6,0.7,0.6c1.2-0.1,1.8,0.1,2.1,0.9c0.1,0.4,0.5,0.8,0.7,0.8c1.2-0.1,1.9,0.1,1.9,0.6c0,0.3,0.3,0.6,0.6,0.6
		s0.6,0.2,0.6,0.4c0,0.2,0.6,0.5,1.4,0.6c0.8,0.2,1.4,0.5,1.6,1c0.1,0.4,0.6,0.8,1.3,0.9c0.7,0.1,1.1,0.3,1,0.6
		c-0.1,0.3,0.4,0.5,1.3,0.5c1,0,1.4,0.2,1.4,0.6c0,0.3,0.4,0.6,0.8,0.6c0.4,0,0.8,0.2,0.7,0.4c-0.1,0.2,0.2,0.5,0.7,0.6
		c0.4,0.1,1.3,0.5,1.9,1c0.6,0.5,1.5,0.8,1.9,0.8c0.5,0,0.8,0.3,0.8,0.6c0,0.4,0.4,0.6,1.2,0.6s1.2,0.2,1.2,0.6
		c0,0.3,0.2,0.6,0.4,0.6c0.2,0,0.7,0.3,1.1,0.8c0.4,0.4,1.2,0.8,1.7,0.9c0.6,0.1,1,0.4,0.9,0.6c-0.1,0.3,0.7,0.5,2.5,0.5
		c2,0,2.6-0.1,2.6-0.6c0-0.4,0.4-0.6,1.2-0.6c0.6,0,1.3-0.2,1.5-0.5c0.2-0.3,0.1-0.4-0.3-0.2c-0.3,0.2-0.2,0,0.2-0.3
		c0.4-0.3,0.9-0.5,1.1-0.4c0.2,0.1,0.3-0.2,0.3-0.6c0-0.6,0.3-0.8,1.2-0.8c0.6,0,1.3-0.2,1.5-0.5c0.4-0.6,3.3-2.1,3.8-2
		c0.2,0.1,0.3-0.3,0.3-0.7c0-0.7,0.3-0.8,1.4-0.8c1.1,0,1.4-0.1,1.2-0.6c-0.2-0.5,0.9-0.9,2.2-0.6c0.2,0,0.3-0.2,0.3-0.6
		c0-0.3,0.4-0.6,0.8-0.6c0.4,0,1-0.4,1.3-0.8s0.8-0.8,1.2-0.8c0.4,0,0.7-0.3,0.7-0.6c0-0.4,0.4-0.6,1.2-0.6c0.6,0,1.3-0.3,1.5-0.6
		c0.2-0.3,0.7-0.6,1.1-0.7c1.1-0.2,1.8-0.7,1.6-1.1c-0.2-0.3,1.3-0.6,2.3-0.4c0.2,0,0.3-0.2,0.3-0.6c0-0.3,0.2-0.6,0.5-0.6
		c0.3,0,0.7-0.3,0.9-0.6c0.2-0.3,0.9-0.6,1.5-0.7c0.8-0.1,1.1-0.3,1.1-0.8c0-0.6,1.2-1,2.5-0.8c0.2,0,0.2-0.1,0.1-0.3
		c-0.1-0.2,0.4-0.7,1.1-1s1.5-0.8,1.6-1c0.2-0.2,0.5-0.3,0.7-0.2c0.2,0.1,0.5-0.1,0.6-0.6c0.2-0.6,0.5-0.8,1.4-0.8
		c0.7,0,1.3-0.3,1.4-0.6c0.1-0.3,0.6-0.6,1.1-0.6s1.4-0.6,2.1-1.4c0.8-0.9,1.7-1.4,2.3-1.4c0.6,0,1-0.2,1-0.6c0-0.4,0.4-0.6,1-0.6
		c0.5,0,1.2-0.3,1.4-0.6c0.3-0.3,0.7-0.6,1-0.6s0.8-0.4,1.2-0.8s1.1-0.8,1.5-0.8s0.7-0.3,0.7-0.6c0-0.4,0.4-0.6,1.2-0.6
		c0.8,0,1.2-0.2,1.2-0.6c0-0.3,0.3-0.6,0.8-0.6c1.2,0,2-0.4,2-1c0-0.3,0.6-0.6,1.4-0.8c0.8-0.1,1.4-0.4,1.4-0.6
		c0-0.2,0.3-0.4,0.6-0.4c0.3,0,0.6-0.3,0.6-0.6c0-0.3,0.6-0.7,1.4-0.8c0.8-0.2,1.4-0.5,1.4-0.8c0-0.3,0.4-0.6,1-0.6
		c0.5,0,1.2-0.3,1.4-0.6c0.3-0.3,0.7-0.6,1-0.6s0.6-0.3,0.6-0.6c0-0.4,0.4-0.6,1.2-0.6c0.9,0,1.3-0.2,1.4-0.8
		c0.1-0.6,0.5-0.8,1.4-0.8c0.8,0,1.2-0.2,1.2-0.6c0-0.4,0.4-0.6,1.2-0.6c0.6,0,1.3-0.2,1.5-0.5c0.2-0.3,0.1-0.4-0.2-0.2
		c-0.3,0.2-0.5,0.2-0.5,0.1c0-0.1,0.4-0.4,1-0.6c0.5-0.2,1-0.7,1-1c0-0.4,0.4-0.6,1.2-0.6c0.7,0,1.3-0.2,1.4-0.6
		c0.1-0.3,0.5-0.6,0.8-0.6s1.4-0.4,2.3-1c1-0.5,1.8-0.9,2-0.7c0.1,0.1,0.2-0.1,0.2-0.4c0-0.4,0.3-0.7,0.8-0.7c0.4,0,0.8-0.2,0.7-0.5
		c-0.1-0.3,0.4-0.6,1.2-0.6c0.8-0.1,1.3-0.3,1.3-0.7c0-0.3,0.4-0.6,1-0.6c0.5,0,1.2-0.4,1.5-0.8c0.3-0.5,1-0.9,1.6-0.9
		c0.6,0,1-0.2,0.9-0.4c-0.1-0.2,0.2-0.5,0.8-0.7c0.5-0.2,1-0.6,1.1-0.8c0.1-0.2,0.7-0.5,1.3-0.5c0.8-0.1,1.2-0.3,1.1-0.8
		c0-0.6,1-0.9,2.4-0.7c0.2,0,0.3-0.2,0.3-0.6c0-0.3,0.4-0.6,0.8-0.6c0.5,0,0.7-0.2,0.6-0.4c-0.3-0.5,1.4-1.2,2.1-0.9
		c0.3,0.1,0.5-0.1,0.5-0.7c0-0.8,1-1.1,2.5-0.9c0.2,0,0.3-0.1,0.2-0.3c-0.1-0.2,0.6-0.7,1.4-1.2l1.5-0.8l0,0.9c0,0.5,0,1,0,1.2
		c0,0.2,0.2,0.3,0.5,0.2c0.4-0.1,0.5,0.7,0.6,2.5c0.1,3.4,0.4,4.4,1.1,4.4c0.4,0,0.6,0.5,0.6,2c0,1.5,0.1,2,0.6,2
		c0.4,0,0.6,0.4,0.6,1.2c0,0.8,0.2,1.2,0.6,1.2c0.4,0,0.6,0.4,0.6,1.2c0,0.9,0.2,1.3,0.8,1.4c0.5,0.1,0.8,0.5,0.8,1.3
		c0,0.7,0.4,1.4,1.1,2.1c0.6,0.5,1.2,1.3,1.4,1.7c0.1,0.4,0.5,0.7,0.9,0.7c0.3,0,0.6,0.3,0.6,0.6c0,0.3,0.3,0.6,0.6,0.6
		c0.3,0,0.6,0.3,0.6,0.6c0,0.3,0.3,0.6,0.6,0.6c0.3,0,0.6,0.4,0.6,0.8c0,0.4,0.1,0.8,0.3,0.8c0.8-0.1,1.3,0.1,1.3,0.6
		c0,0.3,0.3,0.6,0.6,0.6c0.3,0,0.6,0.3,0.6,0.6c0,0.3,0.4,0.6,0.8,0.6c0.5,0,0.7,0.2,0.6,0.6c-0.1,0.3,0,0.6,0.2,0.7
		c0.2,0,0.6,0.1,0.8,0.1s0.7,0.1,1,0.1c0.3,0,0.6,0.3,0.6,0.6c0,0.3,0.3,0.6,0.6,0.6c0.3,0,0.7,0.2,0.8,0.5c0.1,0.3,0.8,0.6,1.4,0.6
		c0.7,0,1.4,0.3,1.7,0.8c0.3,0.4,1.1,0.8,1.8,0.8c0.7,0.1,1.6,0.4,1.9,0.7c0.3,0.3,1.6,0.6,2.8,0.7c1.5,0.1,2.2,0.3,2.1,0.6
		c-0.1,0.4,1.8,0.5,9.1,0.5c6.8,0,9.2-0.2,9.1-0.5c-0.1-0.3,0.7-0.5,2-0.6c1.5-0.1,2.1-0.3,2.1-0.7c0-0.4,0.5-0.6,1.3-0.6
		c1.8-0.1,2-0.1,2.6-0.5c0.3-0.2,0.4-0.5,0.3-0.7c-0.1-0.2,0.4-0.4,1.2-0.4c1,0,1.4-0.2,1.4-0.6c0-0.4,0.4-0.6,1.2-0.6
		c0.6,0,1.3-0.2,1.5-0.5c0.2-0.3,0.1-0.4-0.3-0.1c-0.5,0.3-0.5,0.2,0-0.3c0.3-0.4,0.8-0.6,1.1-0.4c0.4,0.1,0.6-0.1,0.6-0.6
		c0-0.5,0.3-0.8,0.6-0.8c0.3,0,0.7-0.3,0.8-0.6c0.1-0.3,0.7-0.6,1.2-0.6c0.6,0,1.1-0.3,1.2-0.7c0.3-0.9,1.7-2.5,2.2-2.5
		c0.8,0,1.9-1.5,1.9-2.5c0-0.6,0.2-1.1,0.5-1.1c0.6,0,2.1-1.5,2.4-2.5c0.1-0.4,0.4-0.6,0.7-0.5c0.2,0.1,0.4-0.3,0.4-1
		c0-0.8,0.3-1.4,0.8-1.6c0.5-0.3,0.8-0.8,0.8-1.6c0-0.8,0.2-1.2,0.6-1.2c0.4,0,0.6-0.5,0.6-1.8s0.2-1.8,0.6-1.8
		c0.5,0,0.6-0.6,0.6-2.6c0-1.5,0.2-2.6,0.4-2.6c0.3,0,0.4-2.9,0.4-8s-0.1-8-0.4-8c-0.2,0-0.4-1.1-0.4-2.6c0-2-0.1-2.6-0.6-2.6
		c-0.4,0-0.6-0.5-0.6-1.8c0-1.2-0.2-1.9-0.6-2.1c-0.4-0.2-0.7-0.8-0.7-1.4c0-0.6-0.4-1.2-0.8-1.3c-0.5-0.1-0.7-0.6-0.7-1.4
		c0-0.8-0.2-1.2-0.6-1.2c-0.3,0-0.6-0.3-0.6-0.6c0-0.3-0.3-0.7-0.6-0.8c-0.3-0.1-0.6-0.7-0.6-1.2c0-0.7-0.3-1.1-0.8-1.2
		c-0.4-0.1-0.8-0.5-0.8-0.8s-0.3-0.7-0.6-0.8c-0.3-0.1-0.6-0.5-0.6-0.8c0-0.3-0.3-0.6-0.6-0.6c-0.3,0-0.6-0.3-0.6-0.6
		c0-0.3-0.4-0.6-0.8-0.6c-0.5,0-0.8-0.3-0.8-0.8c0-0.4-0.3-0.8-0.6-0.8c-0.3,0-0.7-0.3-0.8-0.6c-0.1-0.3-0.5-0.6-0.8-0.6
		c-0.3,0-0.6-0.3-0.6-0.6c0-0.4-0.4-0.6-1.2-0.6c-0.9,0-1.2-0.2-1.2-0.8c0-0.5-0.3-0.8-0.9-0.9c-0.5-0.1-0.9-0.4-0.8-0.6
		c0.1-0.3-0.1-0.5-0.4-0.4c-1.2,0.2-1.9-0.1-1.9-0.6c0-0.5-0.5-0.6-2-0.6c-1.6,0-2-0.1-2.2-0.8c-0.2-0.6-0.5-0.8-2-0.8
		c-1.2,0-1.9-0.2-2-0.6c-0.2-0.5-1.1-0.6-4.8-0.6c-3.9,0-4.6-0.1-4.6-0.6c0-0.8-3.2-0.7-3.5,0.1c-0.1,0.4-1.4,0.5-4.8,0.5
		c-3.8,0-4.6,0.1-4.6,0.6c0,0.4-0.4,0.6-1.6,0.6c-1.2,0-1.5-0.1-1.4-0.6c0.2-0.5-0.1-0.6-1.2-0.6H372v-67.1v-67.1l-1-0.9
		c-0.5-0.5-1.3-1-1.6-1.1c-0.4-0.1-0.6-0.4-0.4-0.7c0.2-0.2-0.3-0.4-1.2-0.4c-1.1,0-1.4-0.1-1.2-0.6c0.2-0.4-0.2-0.7-1.2-0.8
		c-0.8-0.1-1.4-0.5-1.4-0.8c0-0.3-0.4-0.6-0.8-0.6c-0.4,0-0.8-0.3-0.8-0.6c0-0.4-0.4-0.6-1.2-0.6c-0.8,0-1.2-0.2-1.2-0.6
		c0-0.3-0.6-0.7-1.4-0.8c-0.8-0.2-1.4-0.5-1.4-0.8c0-0.4-0.4-0.6-1.2-0.6c-0.8,0-1.2-0.2-1.2-0.6c0-0.3-0.3-0.6-0.7-0.6
		s-0.9-0.4-1.2-0.8c-0.3-0.4-0.8-0.8-1.2-0.8c-0.4,0-1-0.3-1.2-0.6c-0.3-0.3-0.9-0.6-1.4-0.6c-0.6,0-1-0.2-1-0.6
		c0-0.4-0.4-0.6-1.4-0.6c-1.1,0-1.4-0.2-1.4-0.8c0-0.4-0.3-0.8-0.6-0.8c-0.3,0-0.6-0.2-0.6-0.4c0-0.2-0.2-0.3-0.4-0.2
		c-0.2,0.1-0.5,0-0.6-0.2c-0.1-0.2-0.6-0.4-1-0.4c-0.4,0-0.8-0.3-1-0.6c-0.1-0.3-0.7-0.6-1.2-0.6c-0.6,0-1.1-0.3-1.2-0.8
		c-0.2-0.6-0.6-0.8-1.4-0.8c-0.8,0-1.2-0.2-1.2-0.6c0-0.3-0.4-0.6-0.8-0.6s-0.8-0.3-0.8-0.6c0-0.4-0.4-0.6-1.2-0.6
		c-0.9,0-1.2-0.2-1.2-0.8c0-0.4-0.1-0.8-0.3-0.8c-1.2,0.2-2.5-0.1-2.5-0.6c0-0.3-0.3-0.6-0.6-0.6c-0.3,0-0.6-0.2-0.8-0.5
		c-0.1-0.3-0.7-0.6-1.3-0.6c-1.1-0.1-1.9-0.8-1.5-1.4c0.1-0.2,0.1-0.3-0.1-0.3c-1.2,0.2-2.5-0.1-2.5-0.6c0-0.4-0.4-0.6-1.2-0.6
		c-0.8,0-1.2-0.2-1.2-0.6c0-0.3-0.3-0.6-0.8-0.6c-0.4,0-0.8-0.4-1-0.8c-0.1-0.5-0.4-0.8-0.5-0.6c-0.5,0.3-2.2-0.5-1.9-0.9
		c0.1-0.2,0.1-0.4-0.1-0.4c-1.2,0.2-2.5-0.1-2.5-0.6c0-0.4-0.4-0.6-1.2-0.6c-0.8,0-1.2-0.2-1.4-0.8c-0.1-0.4-0.6-0.8-1-0.8
		c-0.5,0-0.7-0.2-0.6-0.5c0.1-0.3-0.2-0.5-0.9-0.6c-0.6,0-1.2-0.4-1.4-0.7c-0.2-0.3-0.9-0.6-1.5-0.6c-0.9,0-1.2-0.2-1.2-0.8
		c0-0.6-0.3-0.8-1.4-0.8c-1,0-1.4-0.2-1.4-0.6c0-0.3-0.3-0.6-0.6-0.6c-0.3,0-0.6-0.3-0.6-0.6c0-0.4-0.4-0.6-1.4-0.6
		c-1.1,0-1.4-0.2-1.4-0.8c0-0.6-0.3-0.8-1.3-0.9c-0.7-0.1-1.2-0.3-1.2-0.5s-0.3-0.5-0.8-0.6c-0.5-0.1-0.9-0.4-0.8-0.7
		c0.1-0.3-0.4-0.5-1.3-0.5c-0.8,0-1.4-0.1-1.4-0.3c0.1-0.9-0.2-1.2-1.1-1.2c-0.6,0-1.2-0.3-1.4-0.7c-0.2-0.4-0.9-0.6-1.5-0.6
		c-0.8,0-1.2-0.2-1.2-0.6c0-0.3-0.4-0.6-0.8-0.6c-0.6,0-0.8-0.2-0.6-0.6c0.2-0.6-0.5-1-1.8-1c-0.4,0-0.8-0.3-0.8-0.6
		c0-0.4-0.4-0.6-1.2-0.6s-1.2-0.2-1.2-0.6c0-0.4-0.4-0.6-1.4-0.6c-1.1,0-1.4-0.2-1.4-0.8c0-0.5-0.3-0.8-0.9-0.9
		c-0.5-0.1-0.9-0.4-0.8-0.6c0.1-0.3-0.1-0.5-0.4-0.4c-1.2,0.2-1.9-0.1-1.9-0.6c0-0.4-0.4-0.6-1.4-0.6c-0.9,0-1.4-0.2-1.4-0.5
		c0-0.3-0.4-0.8-0.8-1.2c-0.4-0.4-0.8-0.6-0.8-0.4s-0.2,0.1-0.5-0.2c-0.3-0.3-0.8-0.5-1.2-0.5c-0.4,0-0.8-0.3-0.9-0.6
		c-0.1-0.4-0.7-0.6-1.5-0.6c-0.9,0-1.2-0.2-1-0.6c0.2-0.6-0.5-1-1.8-1c-0.4,0-0.8-0.3-0.8-0.6c0-0.3-0.4-0.6-0.8-0.6
		c-0.4,0-0.8-0.3-0.8-0.6c0-0.4-0.4-0.6-1.2-0.6c-0.8,0-1.2-0.2-1.2-0.6c0-0.3-0.6-0.7-1.4-0.8c-0.8-0.2-1.4-0.5-1.4-0.8
		c0-0.3-0.4-0.6-1.2-0.6c-0.7,0-1.3-0.3-1.4-0.6c-0.1-0.3-0.5-0.6-0.7-0.6s-0.7-0.4-1-0.8c-0.3-0.4-0.8-0.8-1.2-0.8
		c-0.4,0-1-0.3-1.2-0.6c-0.3-0.3-0.9-0.6-1.4-0.6c-0.6,0-1-0.2-1-0.6c0-0.4-0.4-0.6-1.4-0.6c-1.1,0-1.4-0.2-1.4-0.8
		c0-0.4-0.3-0.8-0.6-0.8c-0.3,0-0.6-0.2-0.6-0.4c0-0.2-0.2-0.3-0.4-0.2c-0.2,0.1-0.5,0-0.6-0.2c-0.1-0.2-0.6-0.4-1-0.4
		s-0.8-0.3-0.8-0.6c0-0.4-0.4-0.6-1.2-0.6c-0.8,0-1.2-0.2-1.4-0.8c-0.1-0.5-0.5-0.8-1-0.8c-0.5,0-0.8-0.2-0.6-0.5
		c0.2-0.4-0.3-0.5-2.2-0.6C229.2,62.9,228.4,63,228.2,63.4 M233.1,84.4c1,0.7,1.9,1.2,2,1.2c0.2,0,5.9,3.3,6.1,3.6
		c0.1,0.1,1.2,0.7,2.4,1.3c1.2,0.6,2.7,1.5,3.4,1.9s1.7,1.1,2.4,1.5c0.7,0.4,1.7,1,2.4,1.4c0.7,0.4,1.7,0.9,2.3,1.2
		c0.6,0.3,1.1,0.6,1.1,0.8c0,0.2,0.2,0.4,0.5,0.4s1.5,0.6,2.6,1.4s2.3,1.4,2.5,1.4s1.3,0.6,2.5,1.4c1.2,0.8,2.9,1.8,3.7,2.2
		c0.9,0.5,2.3,1.3,3.2,1.8s1.9,1.1,2.3,1.2s0.7,0.4,0.7,0.6c0,0.2,0.5,0.5,1.1,0.8c1.2,0.5,4.4,2.3,7,3.9c0.9,0.6,2.7,1.6,3.9,2.3
		c3.3,1.8,3.7,2,5.4,3.1c0.9,0.6,2,1.2,2.6,1.5c0.5,0.3,1.5,0.8,2.2,1.3c0.7,0.4,1.7,1.1,2.4,1.4c2.2,1.1,5.6,3.1,5.8,3.3
		c0.2,0.3,1.1,0.8,4.9,2.8c1,0.6,1.9,1.2,1.9,1.3c0,0.2,0.3,0.3,0.8,0.3s0.9,0.2,1,0.4c0.1,0.2,0.6,0.6,1.1,0.8
		c0.5,0.2,1.6,0.8,2.5,1.4c0.9,0.6,2,1.2,2.6,1.4c0.5,0.2,1.7,0.9,2.7,1.6s2.1,1.3,2.5,1.4c0.5,0.1,0.8,0.4,0.8,0.6
		c0,0.2,0.2,0.4,0.5,0.4s1.5,0.6,2.6,1.4s2.3,1.4,2.5,1.4c0.2,0,1.1,0.5,2.1,1.2c1,0.7,2.2,1.4,2.7,1.6c0.5,0.2,1.5,0.8,2.2,1.2
		c0.7,0.4,1.5,0.9,1.8,1.1c0.8,0.4,6.2,3.5,6.4,3.7c0.1,0.1,0.8,0.6,1.6,1c2.7,1.4,4.6,2.5,6.1,3.4l1.5,0.9v66.9
		c0,63.2,0,66.9,0.7,67.5c0.4,0.3,1.7,1.1,2.9,1.7c1.2,0.6,2.7,1.5,3.4,1.9c0.7,0.4,1.6,0.9,2.1,1.2c0.5,0.2,1.7,0.9,2.6,1.5
		c2.6,1.7,3.2,2.1,4.3,2.5c0.5,0.2,1.7,1,2.7,1.6c0.9,0.6,1.8,1,2,0.8c0.1-0.2,1.3-0.8,2.5-1.4c1.3-0.6,2.8-1.3,3.4-1.6
		c2.4-1.2,14.8-1.2,16.1,0.1c0.3,0.3,0.9,0.6,1.3,0.6c2.5,0,9.8,6.5,11.7,10.4c0.5,1,1,2.1,1.2,2.4c3.8,7,1.5,19.8-4.7,25.7
		c-1.2,1.1-2.4,2.3-2.8,2.7c-0.9,0.9-5.9,3.6-6.8,3.6c-0.4,0-1.1,0.3-1.5,0.6c-1.1,0.9-11.7,0.9-12.8,0c-0.4-0.3-1.2-0.6-1.7-0.6
		c-0.8,0-3.9-1.4-4.5-2c-0.1-0.1-0.7-0.5-1.3-0.9c-4.1-2.6-8.4-8.8-9.4-13.5c-0.2-1-0.6-2.5-0.8-3.4c-0.6-2.2-0.5-5,0.2-6.2
		c1.5-2.5,0.7-4.2-2.8-6c-0.2-0.1-1.2-0.7-2.1-1.3c-0.9-0.6-2.1-1.3-2.6-1.5c-1.6-0.7-3.3-1.7-3.5-2c-0.1-0.2-1.2-0.8-2.5-1.4
		c-1.3-0.6-2.4-1.2-2.5-1.5c-0.3-0.5-2.8-0.5-3.5,0.1c-0.3,0.3-1.2,0.8-1.9,1.3c-0.8,0.4-2.1,1.1-3,1.6s-2.3,1.3-3.2,1.9
		s-2,1.1-2.5,1.3c-0.5,0.2-0.9,0.4-0.9,0.6s-0.4,0.5-0.9,0.6c-0.5,0.2-1.2,0.5-1.5,0.8c-0.3,0.3-1.5,1-2.6,1.6
		c-1.1,0.6-2.5,1.4-3.2,1.8c-0.7,0.4-1.8,1.1-2.6,1.5c-3.8,2-5.5,3-6.6,3.7c-0.7,0.4-1.6,1-2.2,1.3c-0.5,0.3-1.1,0.6-1.2,0.8
		c-0.1,0.2-0.7,0.5-1.2,0.7c-1.5,0.7-5.3,2.8-6,3.5c-0.3,0.3-0.9,0.6-1.3,0.6c-0.4,0-0.7,0.2-0.7,0.4s-0.9,0.9-2.1,1.4
		c-2.7,1.4-4.1,2.2-6.2,3.5c-0.9,0.6-1.9,1.1-2.1,1.1c-0.2,0-0.6,0.2-0.9,0.5c-0.6,0.6-2.4,1.6-4,2.3c-0.6,0.3-1.1,0.6-1.1,0.8
		c0,0.2-0.2,0.4-0.5,0.4s-1.4,0.6-2.5,1.3s-2.9,1.8-4,2.3c-1.1,0.6-2.1,1.1-2.2,1.3c-0.1,0.2-0.7,0.5-1.2,0.7
		c-0.5,0.2-1.5,0.8-2.2,1.2c-0.7,0.4-1.7,1-2.3,1.2c-0.6,0.2-1.1,0.6-1.1,0.8s-0.5,0.5-1.1,0.8s-1.6,0.8-2.3,1.2
		c-0.7,0.4-1.8,1-2.5,1.4c-0.7,0.3-1.4,0.8-1.5,1c-0.1,0.2-0.6,0.4-1,0.4s-0.8,0.2-0.8,0.4c0,0.2-0.5,0.6-1.1,0.8
		c-0.6,0.2-1.9,0.9-2.8,1.6c-1,0.7-1.9,1.2-2.1,1.2c-0.2,0-1.2,0.5-2.1,1.2c-1,0.7-2.2,1.4-2.7,1.6c-0.5,0.2-1.5,0.8-2.2,1.2
		c-0.7,0.4-1.6,1-2,1.2c-0.4,0.2-1.5,0.9-2.4,1.4c-0.9,0.5-2,1.2-2.4,1.4c-0.4,0.2-1.3,0.8-2,1.2c-0.7,0.4-2.3,1.3-3.6,2
		c-1.3,0.7-2.5,1.4-2.6,1.5c-1,1.3-4.6,2.1-5.5,1.2c-0.5-0.5-1.9-1.3-3.3-2c-0.5-0.2-1.1-0.6-1.2-0.7c-0.1-0.2-1.2-0.8-2.4-1.4
		c-1.2-0.6-2.7-1.5-3.4-1.9c-0.7-0.4-1.7-1-2.2-1.3c-0.5-0.3-1.1-0.6-1.2-0.8c-0.1-0.2-0.7-0.5-1.2-0.7c-0.5-0.2-1.7-0.9-2.6-1.4
		c-0.9-0.5-1.9-1.1-2.2-1.3c-0.3-0.2-1.3-0.7-2.2-1.3c-1.9-1.2-3.1-1.9-5.7-3.2c-1.1-0.5-2-1.1-2-1.3c-0.1-0.2-1.2-0.8-2.6-1.5
		c-1.4-0.7-3-1.6-3.7-2s-1.6-1-2-1.2c-2.7-1.4-3.4-1.8-4.8-2.7c-0.9-0.6-2.4-1.5-3.4-2c-1-0.5-2.5-1.4-3.4-1.9
		c-0.9-0.5-1.9-1.1-2.2-1.2c-0.3-0.2-1.3-0.8-2.2-1.4c-0.9-0.6-2.1-1.3-2.6-1.5c-1-0.4-1.7-0.8-4.2-2.4c-0.9-0.6-2.1-1.2-2.6-1.5
		c-0.6-0.3-1.3-0.6-1.6-0.9c-2.4-1.5-7.6-4.4-7.8-4.4c-0.2,0-0.6-0.3-0.9-0.6c-0.3-0.3-1.5-1-2.6-1.6c-1.1-0.6-2.5-1.4-3.2-1.8
		s-1.6-1-2.2-1.3c-0.6-0.3-1.7-0.9-2.6-1.5c-2.4-1.5-3-1.8-5.7-3.2c-1.4-0.7-2.5-1.4-2.6-1.5c-0.1-0.3-0.9-0.7-4.8-2.8
		c-1-0.6-1.9-1.2-1.9-1.3c0-0.2-0.3-0.3-0.7-0.3s-0.9-0.2-1.2-0.5c-0.6-0.6-4.7-3-6.2-3.6c-0.6-0.2-1.1-0.6-1.1-0.8
		c0-0.2-0.2-0.4-0.5-0.4c-0.3,0-1-0.4-1.6-0.8c-0.6-0.4-1.2-0.8-1.4-0.8c-0.2,0-1.2-0.5-2.1-1.2c-0.9-0.6-2.5-1.6-3.5-2.1
		c-1-0.5-2.3-1.3-2.9-1.7l-1.1-0.7l-0.1-67l-0.1-67l-3.2-1.7c-1.8-1-3.7-2-4.4-2.3c-0.7-0.3-1.7-1-2.4-1.4s-2.1-1.2-3.2-1.8
		c-1.1-0.6-2.3-1.3-2.6-1.6c-0.3-0.3-0.8-0.6-0.9-0.6c-0.4,0-2.8-1.7-3.1-2.2c-0.2-0.2-0.7-0.2-1.4,0.3c-1,0.6-2.3,1.3-4.7,2.5
		c-4.4,2.2-13.3,2.2-17.5,0c-0.6-0.3-1.3-0.6-1.7-0.6c-0.3,0-0.9-0.2-1.2-0.5c-0.3-0.3-0.9-0.7-1.4-0.8c-2.6-0.8-9.7-9.7-9.7-12.1
		c0-0.3-0.3-1-0.7-1.6c-0.9-1.4-0.9-12.5,0-14c0.4-0.5,0.6-1.3,0.6-1.6c0-0.8,3.2-6.2,3.6-6.2c0.2,0,0.4-0.2,0.4-0.4
		c0-0.4,2.3-2.6,4.9-4.6c2-1.5,5.1-3,6.2-3c0.4,0,1.3-0.3,2-0.6c1.6-0.8,10.5-0.7,11.3,0.1c0.3,0.3,0.9,0.5,1.3,0.5
		c1.1,0,6.7,2.8,6.9,3.5c0.1,0.3,0.4,0.5,0.6,0.5c0.9,0,6.4,6.4,6.4,7.4c0,0.3,0.3,0.7,0.6,1c0.3,0.3,0.6,0.8,0.6,1.3
		s0.2,1.2,0.6,1.7c1,1.6,1.3,6.6,0.8,12c-0.3,3.1-0.3,3.1,0.8,3.5c0.6,0.2,1.1,0.6,1.1,0.8c0,0.2,0.2,0.4,0.5,0.4
		c0.4,0,2,0.9,5.3,3.1c0.4,0.3,1.2,0.7,1.8,0.9c0.5,0.2,1.1,0.5,1.2,0.7c0.1,0.2,1.3,0.8,2.5,1.5c1.3,0.7,2.8,1.4,3.3,1.7
		c1.1,0.6,3.7,0.3,3.7-0.3c0-0.2,0.4-0.5,0.8-0.6c0.5-0.1,1.6-0.8,2.5-1.4s2.1-1.3,2.7-1.6c1.4-0.6,5.1-2.7,7.1-4.1
		c0.9-0.6,1.9-1.2,2.1-1.2s1.3-0.6,2.5-1.4c1.2-0.8,2.4-1.4,2.6-1.4s0.5-0.2,0.5-0.4c0-0.2,0.5-0.6,1.1-0.8c1.3-0.5,3.4-1.7,3.7-2.1
		c0.1-0.2,0.7-0.5,1.2-0.7c0.5-0.2,1.5-0.8,2.2-1.2c0.7-0.4,1.6-1,2.2-1.3c0.6-0.3,1.7-0.9,2.6-1.5c1.5-0.9,2.8-1.6,6.2-3.5
		c0.8-0.4,1.5-0.9,1.6-1c0.1-0.2,0.7-0.5,1.2-0.7c0.5-0.2,1.5-0.8,2.2-1.2c1.8-1.1,3.8-2.3,5.1-2.8c0.6-0.3,1.1-0.6,1.1-0.8
		c0-0.2,0.4-0.5,0.9-0.6c0.5-0.2,1.7-0.8,2.6-1.4c0.9-0.6,1.9-1.2,2.1-1.2s1.3-0.6,2.5-1.4c1.2-0.8,2.4-1.4,2.6-1.4
		c0.3,0,0.5-0.2,0.5-0.4c0-0.2,0.5-0.6,1.1-0.8c1.3-0.5,3.4-1.7,3.7-2.1c0.1-0.2,0.7-0.5,1.2-0.7c0.5-0.2,1.5-0.8,2.2-1.2
		c0.7-0.4,2.2-1.3,3.4-1.9c1.2-0.6,2.3-1.2,2.4-1.4c0.1-0.2,1-0.7,2-1.3c4-2.2,4.6-2.5,5.1-3c0.3-0.3,0.7-0.5,0.9-0.5
		s1.3-0.6,2.5-1.4c1.2-0.8,2.4-1.4,2.6-1.4s0.5-0.2,0.5-0.4c0-0.2,0.5-0.6,1.1-0.8c1.2-0.5,2.6-1.3,5.1-2.8c2.2-1.3,5.4-3.1,6.6-3.7
		c0.6-0.3,1.1-0.7,1.3-1c0.2-0.3,0.6-0.5,0.9-0.5s1.4-0.5,2.3-1.2c1-0.7,2.2-1.4,2.7-1.6c0.5-0.2,1.7-0.9,2.6-1.4
		C230.7,83,231,83,233.1,84.4"/>
</g>
</svg>
