<svg xmlns="http://www.w3.org/2000/svg" xmlns:xlink="http://www.w3.org/1999/xlink" width="500" height="500" viewBox="0 0 500 500">
  <defs>
    <clipPath id="clip-custom_1">
      <rect width="500" height="500"/>
    </clipPath>
  </defs>
  <g id="custom_1" data-name="custom – 1" clip-path="url(#clip-custom_1)">
    <rect width="500" height="500" fill="rgba(255,255,255,0)"/>
    <g id="figma" transform="translate(117 51)">
      <path id="Path_1" data-name="Path 1" d="M19,85.5A66.5,66.5,0,1,1,85.5,152,66.5,66.5,0,0,1,19,85.5Z" transform="translate(114 114)" fill="#1abcfe"/>
      <path id="Path_2" data-name="Path 2" d="M0,104.5A66.5,66.5,0,0,1,66.5,38H133v66.5a66.5,66.5,0,0,1-133,0Z" transform="translate(0 228)" fill="#0acf83"/>
      <path id="Path_3" data-name="Path 3" d="M19,0V133H85.5a66.5,66.5,0,1,0,0-133Z" transform="translate(114 0)" fill="#ff7262"/>
      <path id="Path_4" data-name="Path 4" d="M0,66.5A66.5,66.5,0,0,0,66.5,133H133V0H66.5A66.5,66.5,0,0,0,0,66.5Z" transform="translate(0)" fill="#f24e1e"/>
      <path id="Path_5" data-name="Path 5" d="M0,85.5A66.5,66.5,0,0,0,66.5,152H133V19H66.5A66.5,66.5,0,0,0,0,85.5Z" transform="translate(0 114)" fill="#a259ff"/>
    </g>
  </g>
</svg>
